<?xml version="1.0" standalone="no"?>
<!DOCTYPE svg PUBLIC "-//W3C//DTD SVG 1.1//EN" "http://www.w3.org/Graphics/SVG/1.1/DTD/svg11.dtd" >
<svg xmlns="http://www.w3.org/2000/svg">
<metadata>
This is a custom SVG webfont generated by Font Squirrel.
Copyright   : Copyright beyond design 1997  1998  beyondtechnoorg
</metadata>
<defs>
<font id="RandiRegular" horiz-adv-x="1740" >
<font-face units-per-em="2048" ascent="1638" descent="-410" />
<missing-glyph horiz-adv-x="1126" />
<glyph unicode=" "  horiz-adv-x="1126" />
<glyph unicode="&#x09;" horiz-adv-x="1126" />
<glyph unicode="&#xa0;" horiz-adv-x="1126" />
<glyph unicode="!" horiz-adv-x="512" d="M-51 102q0 84 60.5 144.5t144.5 60.5t144 -60.5t60 -144.5t-60 -144t-144 -60t-144.5 60t-60.5 144zM0 410v921q90 -8 154 -51q154 -102 153 -358v-512h-307z" />
<glyph unicode="&#x22;" horiz-adv-x="512" d="M0 922v204h102v-204h-102zM205 922v204h102v-204h-102z" />
<glyph unicode="#" horiz-adv-x="1331" d="M0 102v103h102v512h-102v102h102v103h308v-103h307v103h307v-103h102v-102h-102v-512h102v-103h-102v-102h-307v102h-307v-102h-308v102h-102zM410 205h307v512h-307v-512z" />
<glyph unicode="$" d="M0 369v41q0 256 256 358q106 43 256 51h205v205h102v-205h205v-102h-205v-246h717v-61q0 -256 -256 -359q-106 -43 -256 -51h-205v-205h-102v205h-205v102h205v267h-717zM309 471h408v246h-205q-51 -6 -92 -31q-95 -61 -111 -215zM819 102h205q55 6 96 33q96 68 107 234 h-408v-267z" />
<glyph unicode="%" horiz-adv-x="1331" d="M0 0l922 1126h204l-921 -1126h-205zM0 922q0 84 60.5 144t144.5 60t144.5 -60t60.5 -144t-60.5 -144.5t-144.5 -60.5t-144.5 60.5t-60.5 144.5zM717 205q0 84 60.5 144.5t144.5 60.5t144 -60.5t60 -144.5t-60 -144.5t-144 -60.5t-144.5 60.5t-60.5 144.5z" />
<glyph unicode="&#x26;" horiz-adv-x="2048" d="M0 410q0 256 256 358q106 43 256 51q150 -8 256 -51q256 -102 256 -358h-717q0 -285 205 -308h512q205 23 205 308v307h-307v102h921v-102h-307v-307q0 -256 -256 -359q-106 -43 -256 -51h-512q-150 8 -256 51q-256 103 -256 359zM315 512h394q-37 190 -197 205 q-47 -4 -84 -25q-88 -51 -113 -180z" />
<glyph unicode="'" horiz-adv-x="307" d="M0 922v204h102v-204h-102z" />
<glyph unicode="(" horiz-adv-x="716" d="M0 307v717q0 256 256 358q106 43 256 52v-103q-205 -23 -205 -307v-717q0 -285 205 -307v-102q-150 8 -256 51q-256 102 -256 358z" />
<glyph unicode=")" horiz-adv-x="716" d="M0 0q205 23 205 307v717q0 285 -205 307v103q150 -8 256 -52q256 -102 256 -358v-717q0 -256 -256 -358q-106 -43 -256 -51v102z" />
<glyph unicode="*" horiz-adv-x="716" d="M0 614v103h121l-90 92l71 72l103 -103v144h102v-125l84 84l74 -72l-92 -92h139v-103h-143l96 -96l-74 -72l-84 84v-120h-102v139l-103 -103l-71 72l94 96h-125z" />
<glyph unicode="+" horiz-adv-x="716" d="M0 410v102h205v205h102v-205h205v-102h-205v-205h-102v205h-205z" />
<glyph unicode="," horiz-adv-x="409" d="M0 -205v410q0 43 29.5 72.5t72.5 29.5t73 -29.5t30 -72.5v-205q0 -84 -60.5 -144.5t-144.5 -60.5z" />
<glyph unicode="-" horiz-adv-x="921" d="M0 410v102h717v-102h-717z" />
<glyph unicode="." horiz-adv-x="409" d="M0 102q0 43 29.5 73t72.5 30t73 -30t30 -73t-30 -72.5t-73 -29.5t-72.5 29.5t-29.5 72.5z" />
<glyph unicode="/" horiz-adv-x="921" d="M0 0l512 1331h205l-512 -1331h-205z" />
<glyph unicode="0" d="M0 410q0 256 256 358q106 43 256 51h512q150 -8 256 -51q256 -102 256 -358t-256 -359q-106 -43 -256 -51h-512q-150 8 -256 51q-256 103 -256 359zM307 410q0 -285 205 -308h512q8 0 41 9l-682 544q-76 -79 -76 -245zM471 709l682 -545q76 80 76 246q0 285 -205 307 h-512q-8 0 -41 -8z" />
<glyph unicode="1" horiz-adv-x="512" d="M0 0v922q90 -8 154 -52q154 -102 153 -358v-512h-307z" />
<glyph unicode="2" d="M0 410v61h1227q-25 227 -203 246h-512v102h512q150 -8 256 -51q256 -102 256 -358v-41h-1227q14 -248 203 -267h512v-102h-512q-150 8 -256 51q-256 103 -256 359z" />
<glyph unicode="3" horiz-adv-x="1638" d="M0 0v102h922q51 6 92 31q94 61 110 215h-899v103h899q-14 248 -202 266h-922v102h922q150 -8 256 -51q256 -102 256 -358t-256 -359q-106 -43 -256 -51h-922z" />
<glyph unicode="4" horiz-adv-x="1536" d="M0 410v409h307v-409q0 -285 205 -308h512v717h307v-1024h-307v205h-512q-150 8 -256 51q-256 103 -256 359z" />
<glyph unicode="5" d="M0 369v41q0 256 256 358q106 43 256 51h512v-102h-512q-51 -6 -92 -31q-94 -61 -111 -215h1227v-61q0 -256 -256 -359q-106 -43 -256 -51h-512v102h512q55 6 96 33q96 68 107 234h-1227z" />
<glyph unicode="6" d="M0 369v41q0 256 256 358q106 43 256 51h512v-102h-512q-51 -6 -92 -31q-94 -61 -111 -215h1227v-61q0 -256 -256 -359q-106 -43 -256 -51h-512q-139 8 -244 47q-246 90 -266 322h-2zM309 369q14 -248 203 -267h512q55 6 96 33q96 68 107 234h-918z" />
<glyph unicode="7" horiz-adv-x="1126" d="M0 348v103h612q-14 248 -202 266h-410v102h410q150 -8 256 -51q256 -102 256 -358v-615h-308v553h-614z" />
<glyph unicode="8" d="M0 410q0 256 256 358q106 43 256 51h512q150 -8 256 -51q256 -102 256 -358t-256 -359q-106 -43 -256 -51h-512q-150 8 -256 51q-256 103 -256 359zM309 369q14 -248 203 -267h512q55 6 96 33q96 68 107 234h-918zM309 471h918q-25 227 -203 246h-512q-51 -6 -92 -31 q-95 -61 -111 -215z" />
<glyph unicode="9" d="M0 348v62q0 256 256 358q106 43 256 51h512q139 -8 244 -45q246 -92 266 -323h2v-41q0 -256 -256 -359q-106 -43 -256 -51h-512v102h512q51 6 92 31q94 61 111 215h-1227zM309 451h918q-14 248 -203 266h-512q-55 -6 -96 -33q-97 -67 -107 -233z" />
<glyph unicode=":" horiz-adv-x="409" d="M0 205q0 43 29.5 72.5t72.5 29.5t73 -29.5t30 -72.5t-30 -73t-73 -30t-72.5 30t-29.5 73zM0 614q0 43 29.5 73t72.5 30t73 -30t30 -73t-30 -72.5t-73 -29.5t-72.5 29.5t-29.5 72.5z" />
<glyph unicode=";" horiz-adv-x="409" d="M0 -205v410q0 43 29.5 72.5t72.5 29.5t73 -29.5t30 -72.5v-205q0 -84 -60.5 -144.5t-144.5 -60.5zM0 614q0 43 29.5 73t72.5 30t73 -30t30 -73t-30 -72.5t-73 -29.5t-72.5 29.5t-29.5 72.5z" />
<glyph unicode="&#x3c;" horiz-adv-x="614" d="M0 430l332 332l63 -64l-270 -268l272 -270l-63 -64z" />
<glyph unicode="=" horiz-adv-x="921" d="M0 307v103h717v-103h-717zM0 512v102h717v-102h-717z" />
<glyph unicode="&#x3e;" horiz-adv-x="614" d="M0 160l63 -64l334 334l-334 332l-61 -64l268 -268z" />
<glyph unicode="?" horiz-adv-x="1331" d="M0 717v102h614q150 -8 256 -51q256 -102 256 -358v-41h-716v102h407q-25 227 -203 246h-614zM266 154q0 63 45 108t109 45q63 0 108 -45t45 -108t-45 -108.5t-108 -45.5t-108.5 45.5t-45.5 108.5z" />
<glyph unicode="@" d="M0 410q0 256 256 358q106 43 256 51h512q150 -8 256 -51q256 -102 256 -358v-410h-1024q-150 8 -256 51q-256 103 -256 359zM307 410q0 -285 205 -308h717v308q0 285 -205 307h-512q-205 -22 -205 -307zM573 410q0 84 60.5 144t144.5 60t144.5 -60t60.5 -144 t-60.5 -144.5t-144.5 -60.5t-144.5 60.5t-60.5 144.5z" />
<glyph unicode="A" d="M0 0v410q0 256 256 358q106 43 256 51h512q150 -8 256 -51q256 -102 256 -358v-410h-307v354h-922v-354h-307zM309 457h918q-18 242 -203 260h-512q-53 -6 -94 -33q-97 -65 -109 -227z" />
<glyph unicode="B" d="M0 0v819h1024q150 -8 256 -51q256 -102 256 -358t-256 -359q-106 -43 -256 -51h-1024zM307 102h717q102 127 203 256v-2h-920v-254zM307 459h920q-18 240 -203 258h-717v-258z" />
<glyph unicode="C" horiz-adv-x="1433" d="M0 410q0 256 256 358q106 43 256 51h717v-102h-717q-205 -23 -205 -307q0 -285 205 -308h717v-102h-717q-150 8 -256 51q-256 103 -256 359z" />
<glyph unicode="D" d="M0 0h1024q150 8 256 51q256 102 256 359q0 256 -256 358q-106 43 -256 51h-1024v-819zM307 102v615h717q205 -23 205 -307q0 -285 -205 -308h-717z" />
<glyph unicode="E" horiz-adv-x="1433" d="M0 410q0 256 256 358q106 43 256 51h717v-102h-717q-53 -6 -94 -33q-96 -63 -109 -225h920v-103h-920q20 -236 203 -254h717v-102h-717q-150 8 -256 51q-256 103 -256 359z" />
<glyph unicode="F" horiz-adv-x="1331" d="M0 0v410q0 256 256 358q106 43 256 51h614v-102h-614q-53 -6 -94 -33q-96 -63 -109 -227h817v-103h-819v-354h-307z" />
<glyph unicode="G" d="M0 410q0 256 256 358q106 43 256 51h819v-102h-819q-205 -23 -205 -307q0 -285 205 -308h512q47 4 84 25q88 51 113 180h-299v103h614q0 -256 -256 -359q-106 -43 -256 -51h-512q-150 8 -256 51q-256 103 -256 359z" />
<glyph unicode="H" horiz-adv-x="1536" d="M0 0v819h307v-362h717v362h307v-819h-307v354h-717v-354h-307z" />
<glyph unicode="I" horiz-adv-x="512" d="M0 0v819h307v-819h-307z" />
<glyph unicode="J" horiz-adv-x="1126" d="M0 0v102h410q205 23 204 308v409h308v-409q0 -256 -256 -359q-106 -43 -256 -51h-410z" />
<glyph unicode="K" horiz-adv-x="1228" d="M0 0v819h307v-307h307q205 23 205 307h307q0 -256 -256 -358q-106 -43 -256 -51q150 -8 256 -52q256 -102 256 -358h-307q0 285 -205 307h-307v-307h-307z" />
<glyph unicode="L" horiz-adv-x="1331" d="M0 410q0 -256 256 -359q106 -43 256 -51h614v102h-614q-205 23 -205 308v409h-307v-409z" />
<glyph unicode="M" d="M0 0v410q0 256 256 358q106 43 256 51h512q150 -8 256 -51q256 -102 256 -358v-410h-307v410q0 285 -205 307h-102v-717h-308v717h-102q-205 -23 -205 -307v-410h-307z" />
<glyph unicode="N" d="M0 0v410q0 256 256 358q106 43 256 51h512q150 -8 256 -51q256 -102 256 -358v-410h-307v410q0 285 -205 307h-512q-205 -23 -205 -307v-410h-307z" />
<glyph unicode="O" d="M0 410q0 256 256 358q106 43 256 51h512q150 -8 256 -51q256 -102 256 -358t-256 -359q-106 -43 -256 -51h-512q-150 8 -256 51q-256 103 -256 359zM307 410q0 -285 205 -308h512q205 23 205 308t-205 307h-512q-205 -22 -205 -307z" />
<glyph unicode="P" d="M0 -307v717q0 256 256 358q106 43 256 51h512q150 -8 256 -51q256 -102 256 -358t-256 -359q-106 -43 -256 -51h-717v-307h-307zM307 102h717q205 23 205 308t-205 307h-512q-205 -23 -205 -307v-308z" />
<glyph unicode="Q" d="M0 410q0 256 256 358q106 43 256 51h512q150 -8 256 -51q256 -102 256 -358v-717h-307v307h-717q-150 8 -256 51q-256 103 -256 359zM307 410q0 -285 205 -308h717v308q0 285 -205 307h-512q-205 -22 -205 -307z" />
<glyph unicode="R" horiz-adv-x="1331" d="M0 0v410q0 256 256 358q106 43 256 51h614v-102h-614q-205 -23 -205 -307v-410h-307z" />
<glyph unicode="S" d="M0 369v41q0 256 256 358q106 43 256 51h614v-102h-614q-51 -6 -92 -31q-94 -61 -111 -215h1227v-61q0 -256 -256 -359q-106 -43 -256 -51h-614v102h614q55 6 96 33q96 68 107 234h-1227z" />
<glyph unicode="T" horiz-adv-x="1536" d="M0 717v102h1331v-102h-512v-717h-307v717h-512z" />
<glyph unicode="U" d="M0 410q0 -256 256 -359q106 -43 256 -51h512q150 8 256 51q256 102 256 359v409h-307v-409q0 -285 -205 -308h-512q-205 23 -205 308v409h-307v-409z" />
<glyph unicode="V" horiz-adv-x="1253" d="M0 410v409h307v-409q0 -285 225 -308q225 23 226 308v409h307v-409q0 -193 -266 -320q-111 -53 -267 -90q-156 37 -266 90q-266 127 -266 320z" />
<glyph unicode="W" d="M0 410v409h307v-409q0 -285 205 -308h102v717h308v-717h102q205 23 205 308v409h307v-409q0 -256 -256 -359q-106 -43 -256 -51h-512q-150 8 -256 51q-256 103 -256 359z" />
<glyph unicode="X" horiz-adv-x="1433" d="M0 0q0 256 256 358q106 43 256 52q-150 8 -256 51q-256 102 -256 358h307q0 -285 205 -327h205q205 43 205 327h307q0 -256 -256 -358q-106 -43 -256 -51q150 -8 256 -52q256 -102 256 -358h-307q0 285 -205 328h-205q-205 -43 -205 -328h-307z" />
<glyph unicode="Y" horiz-adv-x="1536" d="M0 410v409h307v-409q0 -285 205 -308h512v717h307v-819q0 -256 -256 -358q-106 -43 -256 -52h-307v103h307q205 23 205 307h-512q-150 8 -256 51q-256 103 -256 359z" />
<glyph unicode="Z" d="M0 410q0 -256 256 -359q106 -43 256 -51h614v102h-614q-55 6 -96 33q-96 68 -107 234h1227v41q0 256 -256 358q-106 43 -256 51h-614v-102h614q51 -4 92 -31q94 -61 111 -215h-1227v-61z" />
<glyph unicode="[" horiz-adv-x="716" d="M0 307v717q0 256 256 358q106 43 256 52v-103q-205 -23 -205 -307v-717q0 -285 205 -307v-102q-150 8 -256 51q-256 102 -256 358z" />
<glyph unicode="\" horiz-adv-x="921" d="M0 1331h205l512 -1331h-205z" />
<glyph unicode="]" horiz-adv-x="716" d="M0 0q205 23 205 307v717q0 285 -205 307v103q150 -8 256 -52q256 -102 256 -358v-717q0 -256 -256 -358q-106 -43 -256 -51v102z" />
<glyph unicode="^" horiz-adv-x="614" d="M0 922v122l205 205l205 -205v-122l-205 204z" />
<glyph unicode="_" horiz-adv-x="921" d="M0 0h717v-102h-717v102z" />
<glyph unicode="`" horiz-adv-x="614" d="M0 1126h184l205 -204h-184z" />
<glyph unicode="a" d="M0 410q0 256 256 358q106 43 256 51h512q150 -8 256 -51q256 -102 256 -358v-410h-1024q-150 8 -256 51q-256 103 -256 359zM307 410q0 -285 205 -308h717v308q0 285 -205 307h-512q-205 -22 -205 -307z" />
<glyph unicode="b" d="M0 410v716h307v-307h717q150 -8 256 -51q256 -102 256 -358t-256 -359q-106 -43 -256 -51h-512q-150 8 -256 51q-256 103 -256 359zM307 410q0 -285 205 -308h512q205 23 205 308t-205 307h-717v-307z" />
<glyph unicode="c" horiz-adv-x="1433" d="M0 410q0 256 256 358q106 43 256 51h717v-102h-717q-205 -23 -205 -307q0 -285 205 -308h717v-102h-717q-150 8 -256 51q-256 103 -256 359z" />
<glyph unicode="d" d="M0 410q0 256 256 358q106 43 256 51h717v307h307v-716q0 -256 -256 -359q-106 -43 -256 -51h-512q-150 8 -256 51q-256 103 -256 359zM307 410q0 -285 205 -308h512q205 23 205 308v307h-717q-205 -22 -205 -307z" />
<glyph unicode="e" d="M0 410q0 256 256 358q106 43 256 51h512q150 -8 256 -51q256 -102 256 -358h-1229q0 -285 205 -308h307v-102h-307q-150 8 -256 51q-256 103 -256 359zM315 512h906q-37 190 -197 205h-512q-47 -4 -84 -25q-88 -51 -113 -180z" />
<glyph unicode="f" horiz-adv-x="1126" d="M0 0v922q0 256 256 358q106 43 256 51h410v-102h-410q-205 -23 -205 -307v-103h512v-102h-512v-717h-307z" />
<glyph unicode="g" d="M0 410q0 256 256 358q106 43 256 51h512q150 -8 256 -51q256 -102 256 -358v-410q0 -256 -256 -358q-106 -43 -256 -52h-307v103h307q205 23 205 307h-717q-150 8 -256 51q-256 103 -256 359zM307 410q0 -285 205 -308h717v308q0 285 -205 307h-512q-205 -22 -205 -307z " />
<glyph unicode="h" horiz-adv-x="1536" d="M0 0v1126h307v-307h512q150 -8 256 -51q256 -102 256 -358v-410h-307v410q0 285 -205 307h-512v-717h-307z" />
<glyph unicode="i" horiz-adv-x="512" d="M0 0v819h307v-819h-307z" />
<glyph unicode="j" horiz-adv-x="716" d="M0 -328q205 43 205 328v819h307v-819q0 -256 -256 -358q-106 -43 -256 -52v82z" />
<glyph unicode="k" horiz-adv-x="1228" d="M0 0v1024h307v-512h307q205 23 205 307h307q0 -256 -256 -358q-106 -43 -256 -51q150 -8 256 -52q256 -102 256 -358h-307q0 285 -205 307h-307v-307h-307z" />
<glyph unicode="l" horiz-adv-x="512" d="M0 410v921h307v-1331q-90 8 -153 51q-154 103 -154 359z" />
<glyph unicode="m" d="M0 0v819h1004q156 -8 266 -51q266 -102 266 -358v-410h-307v410q0 285 -225 307h-82v-717h-308v717h-307v-717h-307z" />
<glyph unicode="n" horiz-adv-x="1536" d="M0 0v819h799q156 -8 266 -51q266 -102 266 -358v-410h-307v410q0 285 -225 307h-492v-717h-307z" />
<glyph unicode="o" d="M0 410q0 256 256 358q106 43 256 51h512q150 -8 256 -51q256 -102 256 -358t-256 -359q-106 -43 -256 -51h-512q-150 8 -256 51q-256 103 -256 359zM307 410q0 -285 205 -308h512q205 23 205 308t-205 307h-512q-205 -22 -205 -307z" />
<glyph unicode="p" d="M0 -307v717q0 256 256 358q106 43 256 51h512q150 -8 256 -51q256 -102 256 -358t-256 -359q-106 -43 -256 -51h-717v-307h-307zM307 102h717q205 23 205 308t-205 307h-512q-205 -23 -205 -307v-308z" />
<glyph unicode="q" d="M0 410q0 256 256 358q106 43 256 51h512q150 -8 256 -51q256 -102 256 -358v-717h-307v307h-717q-150 8 -256 51q-256 103 -256 359zM307 410q0 -285 205 -308h717v308q0 285 -205 307h-512q-205 -22 -205 -307z" />
<glyph unicode="r" horiz-adv-x="1126" d="M0 0v410q0 256 256 358q106 43 256 51h410v-102h-410q-205 -23 -205 -307v-410h-307z" />
<glyph unicode="s" d="M0 369v41q0 256 256 358q106 43 256 51h614v-102h-614q-51 -6 -92 -31q-94 -61 -111 -215h1227v-61q0 -256 -256 -359q-106 -43 -256 -51h-614v102h614q55 6 96 33q96 68 107 234h-1227z" />
<glyph unicode="t" horiz-adv-x="1126" d="M0 410v921h307v-512h410v-102h-410v-307q0 -285 205 -308h410v-102h-410q-150 8 -256 51q-256 103 -256 359z" />
<glyph unicode="u" horiz-adv-x="1536" d="M0 410v409h307v-409q0 -285 225 -308h492v717h307v-819h-799q-156 8 -266 51q-266 103 -266 359z" />
<glyph unicode="v" horiz-adv-x="1253" d="M0 410v409h307v-409q0 -285 225 -308q225 23 226 308v409h307v-409q0 -193 -266 -320q-111 -53 -267 -90q-156 37 -266 90q-266 127 -266 320z" />
<glyph unicode="w" d="M0 410v409h307v-409q0 -285 205 -308h102v717h308v-717h102q205 23 205 308v409h307v-409q0 -256 -256 -359q-106 -43 -256 -51h-512q-150 8 -256 51q-256 103 -256 359z" />
<glyph unicode="x" horiz-adv-x="1433" d="M0 0q0 256 256 358q106 43 256 52q-150 8 -256 51q-256 102 -256 358h307q0 -285 205 -327h205q205 43 205 327h307q0 -256 -256 -358q-106 -43 -256 -51q150 -8 256 -52q256 -102 256 -358h-307q0 285 -205 328h-205q-205 -43 -205 -328h-307z" />
<glyph unicode="y" horiz-adv-x="1536" d="M0 410v409h307v-409q0 -285 205 -308h512v717h307v-819q0 -256 -256 -358q-106 -43 -256 -52h-307v103h307q205 23 205 307h-512q-150 8 -256 51q-256 103 -256 359z" />
<glyph unicode="z" d="M0 410q0 -256 256 -359q106 -43 256 -51h614v102h-614q-55 6 -96 33q-96 68 -107 234h1227v41q0 256 -256 358q-106 43 -256 51h-614v-102h614q51 -4 92 -31q94 -61 111 -215h-1227v-61z" />
<glyph unicode="{" horiz-adv-x="819" d="M0 676q0 43 29.5 72.5t72.5 29.5v246q0 256 256 358q106 43 256 52v-103q-205 -23 -204 -307v-717q0 -285 204 -307v-102q-150 8 -256 51q-256 102 -256 358v266q-43 0 -72.5 30t-29.5 73z" />
<glyph unicode="|" horiz-adv-x="409" d="M0 0v1331h205v-1331h-205z" />
<glyph unicode="}" horiz-adv-x="819" d="M0 0q205 23 205 307v717q0 285 -205 307v103q150 -8 256 -52q256 -102 256 -358v-246q43 0 72.5 -29.5t29.5 -72.5t-29.5 -73t-72.5 -30v-266q0 -256 -256 -358q-106 -43 -256 -51v102z" />
<glyph unicode="~" horiz-adv-x="614" d="M0 922v102q29 25 102 61q47 10 105 -55q63 -72 98 -72q43 0 105 66v-102q-98 -66 -105 -66q-35 0 -98 72q-57 66 -105 55q-43 -10 -102 -61z" />
<glyph unicode="&#xa1;" horiz-adv-x="512" d="M-41 1126q0 -84 60.5 -144t144.5 -60t144.5 60t60.5 144t-60.5 144.5t-144.5 60.5t-144.5 -60.5t-60.5 -144.5zM0 -102q90 8 154 51q154 102 153 358v512h-307v-921z" />
<glyph unicode="&#xa2;" horiz-adv-x="1433" d="M0 410q0 256 256 358q106 43 256 51h205v103h102v-103h410v-102h-410v-615h410v-102h-410v-102h-102v102h-205q-150 8 -256 51q-256 103 -256 359zM307 410q0 -285 205 -308h205v615h-205q-205 -22 -205 -307z" />
<glyph unicode="&#xa3;" horiz-adv-x="1228" d="M0 307v103h102q0 256 256 358q106 43 256 51h410v-102h-410q-205 -23 -204 -307h204v-103h-204v-205h614v-102h-922v307h-102z" />
<glyph unicode="&#xa4;" horiz-adv-x="1024" d="M0 307l147 148q-45 74 -45 159q0 86 45 160l-147 148l102 102l148 -147q74 45 160 45t159 -45l148 147l102 -102l-147 -148q45 -74 45 -160t-45 -159l147 -148l-102 -102l-148 147q-74 -45 -159 -45q-86 0 -160 45l-148 -147zM205 614q0 -45 18 -84l84 84l-84 84 q-18 -39 -18 -84zM326 428q39 -18 84 -18t84 18l-84 84zM326 801l84 -84l84 84q-39 18 -84 18t-84 -18zM512 614l84 -84q18 39 18 84t-18 84z" />
<glyph unicode="&#xa5;" horiz-adv-x="1536" d="M0 614v205h307v-205q0 -285 205 -307h307q205 23 205 307v205h307v-205q0 -256 -256 -358q-106 -43 -256 -51v-103h103v-102h-103v-102h103v-103h-103v-102h-307v102h-102v103h102v102h-102v102h102v103q-150 8 -256 51q-256 102 -256 358z" />
<glyph unicode="&#xa6;" horiz-adv-x="409" d="M0 0v614h205v-614h-205zM0 717v614h205v-614h-205z" />
<glyph unicode="&#xa8;" horiz-adv-x="921" d="M0 1024q0 43 29.5 72.5t72.5 29.5t73 -29.5t30 -72.5t-30 -72.5t-73 -29.5t-72.5 29.5t-29.5 72.5zM512 1024q0 43 29.5 72.5t72.5 29.5t73 -29.5t30 -72.5t-30 -72.5t-73 -29.5t-72.5 29.5t-29.5 72.5z" />
<glyph unicode="&#xa9;" horiz-adv-x="1331" d="M0 410q0 256 256 358q106 43 256 51h102q150 -8 256 -51q256 -102 256 -358t-256 -359q-106 -43 -256 -51h-102q-150 8 -256 51q-256 103 -256 359zM102 410q0 -193 205 -269q86 -33 205 -39h102q119 6 205 39q205 76 205 269t-205 268q-86 33 -205 39h-102 q-119 -6 -205 -39q-205 -75 -205 -268zM205 410q0 190 256 204h358v-51h-358q-102 -10 -103 -153q0 -143 103 -154h358v-51h-358q-256 15 -256 205z" />
<glyph unicode="&#xaa;" horiz-adv-x="972" d="M-6 922q0 190 258 204h256q256 -14 256 -204v-205h-512q-258 15 -258 205zM10 614v52h758v-52h-758zM150 922q0 -143 102 -154h356l2 154q0 143 -102 153h-256q-102 -10 -102 -153z" />
<glyph unicode="&#xab;" horiz-adv-x="819" d="M0 430l332 332l63 -64l-270 -268l272 -270l-63 -64zM266 430l332 332l64 -64l-271 -268l273 -270l-64 -64z" />
<glyph unicode="&#xac;" horiz-adv-x="716" d="M0 922v102h512v-307h-102v205h-410z" />
<glyph unicode="&#xad;" horiz-adv-x="716" d="M0 410v102h512v-102h-512z" />
<glyph unicode="&#x2212;" horiz-adv-x="716" d="M0 410v102h512v-102h-512z" />
<glyph unicode="&#xae;" horiz-adv-x="1331" d="M0 410q0 256 256 358q106 43 256 51h102q150 -8 256 -51q256 -102 256 -358t-256 -359q-106 -43 -256 -51h-102q-150 8 -256 51q-256 103 -256 359zM102 410q0 -193 205 -269q86 -33 205 -39h102q119 6 205 39q205 76 205 269t-205 268q-86 33 -205 39h-102 q-119 -6 -205 -39q-205 -75 -205 -268zM283 205v205q0 190 256 204h307v-51h-307q-102 -10 -103 -153v-205h-153z" />
<glyph unicode="&#xaf;" horiz-adv-x="819" d="M0 922v102h614v-102h-614z" />
<glyph unicode="&#x2c9;" horiz-adv-x="819" d="M0 922v102h614v-102h-614z" />
<glyph unicode="&#xb0;" horiz-adv-x="614" d="M0 1024q0 84 60.5 144.5t144.5 60.5t144.5 -60.5t60.5 -144.5t-60.5 -144.5t-144.5 -60.5t-144.5 60.5t-60.5 144.5zM102 1024q0 -43 30 -72.5t73 -29.5t72.5 29.5t29.5 72.5t-29.5 72.5t-72.5 29.5t-73 -29.5t-30 -72.5z" />
<glyph unicode="&#xb1;" horiz-adv-x="716" d="M0 205v102h512v-102h-512zM0 614v103h205v205h102v-205h205v-103h-205v-204h-102v204h-205z" />
<glyph unicode="&#xb2;" horiz-adv-x="972" d="M0 819v31h612q-10 115 -100 123h-256v51h256q256 -14 256 -205v-20h-614q8 -123 102 -133h256v-52h-256q-256 15 -256 205z" />
<glyph unicode="&#xb3;" horiz-adv-x="921" d="M0 614v52h461q27 2 45 16q47 31 55 106h-448v52h450q-8 123 -102 133h-461v51h461q256 -14 256 -205q0 -190 -256 -205h-461z" />
<glyph unicode="&#xb4;" horiz-adv-x="512" d="M-20 922l204 204h185l-205 -204h-184z" />
<glyph unicode="&#xb5;" horiz-adv-x="1536" d="M0 -205v1024h307v-409q0 -285 225 -308h492v717h307v-819h-799q-53 0 -225 37v-242h-307z" />
<glyph unicode="&#xb6;" horiz-adv-x="1638" d="M0 717q0 256 256 358q106 43 256 51h922v-1126h-308v1024h-102v-1024h-307v307h-205q-150 8 -256 51q-256 103 -256 359z" />
<glyph unicode="&#xb7;" horiz-adv-x="409" d="M0 512q0 43 29.5 72.5t72.5 29.5t73 -29.5t30 -72.5t-30 -72.5t-73 -29.5t-72.5 29.5t-29.5 72.5z" />
<glyph unicode="&#xb8;" horiz-adv-x="512" d="M0 -307q53 31 94 61q96 74 111 144q6 37 0 102h102q6 -66 0 -102q-16 -94 -164 -205h-143z" />
<glyph unicode="&#xb9;" horiz-adv-x="358" d="M0 614v461q154 -14 154 -205v-256h-154z" />
<glyph unicode="&#xba;" horiz-adv-x="614" d="M0 1024q0 84 60.5 144.5t144.5 60.5t144.5 -60.5t60.5 -144.5t-60.5 -144.5t-144.5 -60.5t-144.5 60.5t-60.5 144.5zM102 1024q0 -43 30 -72.5t73 -29.5t72.5 29.5t29.5 72.5t-29.5 72.5t-72.5 29.5t-73 -29.5t-30 -72.5z" />
<glyph unicode="&#xbb;" horiz-adv-x="819" d="M0 160l63 -64l334 334l-334 332l-61 -64l268 -268zM266 160l64 -64l334 334l-334 332l-62 -64l269 -268z" />
<glyph unicode="&#xbc;" horiz-adv-x="1382" d="M0 0l512 1331h205l-512 -1331h-205zM0 819v461q154 -14 154 -205v-256h-154zM512 205v205h154v-205q0 -143 102 -154h256v359h154v-512h-154v102h-256q-256 15 -256 205z" />
<glyph unicode="&#xbd;" horiz-adv-x="1382" d="M0 0l512 1331h205l-512 -1331h-205zM0 819v461q154 -14 154 -205v-256h-154zM410 205v31h612q-10 115 -100 122h-256v52h256q256 -14 256 -205v-21h-615q8 -123 103 -133h256v-51h-256q-256 15 -256 205z" />
<glyph unicode="&#xbe;" horiz-adv-x="1792" d="M0 819v51h461q27 2 45 17q47 31 55 106h-448v51h450q-8 123 -102 134h-461v51h461q256 -14 256 -205q0 -190 -256 -205h-461zM410 0l512 1331h204l-512 -1331h-204zM922 205v205h153v-205q0 -143 103 -154h256v359h153v-512h-153v102h-256q-256 15 -256 205z" />
<glyph unicode="&#xbf;" horiz-adv-x="1331" d="M0 410v41h717v-103h-408q25 -227 203 -246h614v-102h-614q-150 8 -256 51q-256 103 -256 359zM553 666q0 63 45 108t109 45q63 0 108 -45t45 -108t-45 -108.5t-108 -45.5t-108.5 45.5t-45.5 108.5z" />
<glyph unicode="&#xc0;" d="M0 0v410q0 256 256 358q106 43 256 51h512q150 -8 256 -51q256 -102 256 -358v-410h-307v354h-922v-354h-307zM309 457h918q-18 242 -203 260h-512q-53 -6 -94 -33q-97 -65 -109 -227zM553 1126h184l205 -204h-184z" />
<glyph unicode="&#xc1;" d="M0 0v410q0 256 256 358q106 43 256 51h512q150 -8 256 -51q256 -102 256 -358v-410h-307v354h-922v-354h-307zM309 457h918q-18 242 -203 260h-512q-53 -6 -94 -33q-97 -65 -109 -227zM573 922l205 204h185l-205 -204h-185z" />
<glyph unicode="&#xc2;" d="M0 0v410q0 256 256 358q106 43 256 51h512q150 -8 256 -51q256 -102 256 -358v-410h-307v354h-922v-354h-307zM309 457h918q-18 242 -203 260h-512q-53 -6 -94 -33q-97 -65 -109 -227zM553 922v122l205 205l205 -205v-122l-205 204z" />
<glyph unicode="&#xc3;" d="M0 0v410q0 256 256 358q106 43 256 51h512q150 -8 256 -51q256 -102 256 -358v-410h-307v354h-922v-354h-307zM309 457h918q-18 242 -203 260h-512q-53 -6 -94 -33q-97 -65 -109 -227zM553 922v102q29 25 102 61q47 10 105 -55q63 -72 98 -72q43 0 105 66v-102 q-98 -66 -105 -66q-35 0 -96 72q-59 66 -107 55q-43 -10 -102 -61z" />
<glyph unicode="&#xc4;" d="M0 0v410q0 256 256 358q106 43 256 51h512q150 -8 256 -51q256 -102 256 -358v-410h-307v354h-922v-354h-307zM309 457h918q-18 242 -203 260h-512q-53 -6 -94 -33q-97 -65 -109 -227zM410 1024q0 43 29.5 72.5t72.5 29.5t72.5 -29.5t29.5 -72.5t-29.5 -72.5t-72.5 -29.5 t-72.5 29.5t-29.5 72.5zM922 1024q0 43 29.5 72.5t72.5 29.5t72.5 -29.5t29.5 -72.5t-29.5 -72.5t-72.5 -29.5t-72.5 29.5t-29.5 72.5z" />
<glyph unicode="&#xc5;" d="M0 0v410q0 256 256 358q106 43 256 51h512q150 -8 256 -51q256 -102 256 -358v-410h-307v354h-922v-354h-307zM309 457h918q-18 242 -203 260h-512q-53 -6 -94 -33q-97 -65 -109 -227zM573 1126q0 84 60.5 144.5t144.5 60.5t144.5 -60.5t60.5 -144.5t-60.5 -144 t-144.5 -60t-144.5 60t-60.5 144z" />
<glyph unicode="&#xc6;" horiz-adv-x="2048" d="M0 410q0 256 256 358q106 43 256 51h819q150 -8 256 -51q256 -102 256 -358h-819q0 -285 205 -308h307v-102h-1024q-150 8 -256 51q-256 103 -256 359zM307 410q0 -285 205 -308h205v615h-205q-205 -22 -205 -307zM1032 512h496q-37 190 -197 205h-102q-47 -4 -84 -25 q-88 -51 -113 -180z" />
<glyph unicode="&#xc7;" horiz-adv-x="1638" d="M0 410q0 256 256 358q106 43 256 51h922v-102h-922q-205 -23 -205 -307q0 -285 205 -308h922v-102h-512q6 -66 0 -102q-16 -94 -164 -205h-144q53 31 95 61q96 74 110 144q6 37 0 102h-307q-150 8 -256 51q-256 103 -256 359z" />
<glyph unicode="&#xc8;" horiz-adv-x="1433" d="M0 410q0 256 256 358q106 43 256 51h717v-102h-717q-53 -6 -94 -33q-96 -63 -109 -225h920v-103h-920q20 -236 203 -254h717v-102h-717q-150 8 -256 51q-256 103 -256 359zM553 1126h184l205 -204h-184z" />
<glyph unicode="&#xc9;" horiz-adv-x="1433" d="M0 410q0 256 256 358q106 43 256 51h717v-102h-717q-53 -6 -94 -33q-96 -63 -109 -225h920v-103h-920q20 -236 203 -254h717v-102h-717q-150 8 -256 51q-256 103 -256 359zM573 922l205 204h185l-205 -204h-185z" />
<glyph unicode="&#xca;" horiz-adv-x="1433" d="M0 410q0 256 256 358q106 43 256 51h717v-102h-717q-53 -6 -94 -33q-96 -63 -109 -225h920v-103h-920q20 -236 203 -254h717v-102h-717q-150 8 -256 51q-256 103 -256 359zM553 922v122l205 205l205 -205v-122l-205 204z" />
<glyph unicode="&#xcb;" horiz-adv-x="1433" d="M0 410q0 256 256 358q106 43 256 51h717v-102h-717q-53 -6 -94 -33q-96 -63 -109 -225h920v-103h-920q20 -236 203 -254h717v-102h-717q-150 8 -256 51q-256 103 -256 359zM410 1024q0 43 29.5 72.5t72.5 29.5t72.5 -29.5t29.5 -72.5t-29.5 -72.5t-72.5 -29.5t-72.5 29.5 t-29.5 72.5zM922 1024q0 43 29.5 72.5t72.5 29.5t72.5 -29.5t29.5 -72.5t-29.5 -72.5t-72.5 -29.5t-72.5 29.5t-29.5 72.5z" />
<glyph unicode="&#xcc;" horiz-adv-x="512" d="M-41 1126h184l205 -204h-184zM0 0v819h307v-819h-307z" />
<glyph unicode="&#xcd;" horiz-adv-x="512" d="M-20 922l204 204h185l-205 -204h-184zM0 0v819h307v-819h-307z" />
<glyph unicode="&#xce;" horiz-adv-x="512" d="M-61 922v122l204 205l205 -205v-122l-205 204zM0 0v819h307v-819h-307z" />
<glyph unicode="&#xcf;" horiz-adv-x="512" d="M-102 1024q0 43 29.5 72.5t72.5 29.5t72.5 -29.5t29.5 -72.5t-29.5 -72.5t-72.5 -29.5t-72.5 29.5t-29.5 72.5zM0 0v819h307v-819h-307zM205 1024q0 43 29.5 72.5t72.5 29.5t73 -29.5t30 -72.5t-30 -72.5t-73 -29.5t-72.5 29.5t-29.5 72.5z" />
<glyph unicode="&#xd0;" horiz-adv-x="1638" d="M0 348v103h102v368h820q150 -8 256 -51q256 -102 256 -358t-256 -359q-106 -43 -256 -51h-820v348h-102zM410 102h512q205 23 204 308q0 285 -204 307h-512v-266h102v-103h-102v-246z" />
<glyph unicode="&#xd1;" d="M0 0v410q0 256 256 358q106 43 256 51h512q150 -8 256 -51q256 -102 256 -358v-410h-307v410q0 285 -205 307h-512q-205 -23 -205 -307v-410h-307zM553 983v102q29 25 102 62q47 10 105 -55q63 -72 96 -72q45 0 107 65v-102q-98 -66 -105 -65q-35 0 -96 71 q-59 66 -107 55q-43 -10 -102 -61z" />
<glyph unicode="&#xd2;" d="M0 410q0 256 256 358q106 43 256 51h512q150 -8 256 -51q256 -102 256 -358t-256 -359q-106 -43 -256 -51h-512q-150 8 -256 51q-256 103 -256 359zM307 410q0 -285 205 -308h512q205 23 205 308t-205 307h-512q-205 -22 -205 -307zM553 1126h184l205 -204h-184z" />
<glyph unicode="&#xd3;" d="M0 410q0 256 256 358q106 43 256 51h512q150 -8 256 -51q256 -102 256 -358t-256 -359q-106 -43 -256 -51h-512q-150 8 -256 51q-256 103 -256 359zM307 410q0 -285 205 -308h512q205 23 205 308t-205 307h-512q-205 -22 -205 -307zM573 922l205 204h185l-205 -204h-185z " />
<glyph unicode="&#xd4;" d="M0 410q0 256 256 358q106 43 256 51h512q150 -8 256 -51q256 -102 256 -358t-256 -359q-106 -43 -256 -51h-512q-150 8 -256 51q-256 103 -256 359zM307 410q0 -285 205 -308h512q205 23 205 308t-205 307h-512q-205 -22 -205 -307zM553 922v122l205 205l205 -205v-122 l-205 204z" />
<glyph unicode="&#xd5;" d="M0 410q0 256 256 358q106 43 256 51h512q150 -8 256 -51q256 -102 256 -358t-256 -359q-106 -43 -256 -51h-512q-150 8 -256 51q-256 103 -256 359zM307 410q0 -285 205 -308h512q205 23 205 308t-205 307h-512q-205 -22 -205 -307zM553 922v102q29 25 102 61 q47 10 105 -55q63 -72 98 -72q43 0 105 66v-102q-98 -66 -105 -66q-35 0 -96 72q-59 66 -107 55q-43 -10 -102 -61z" />
<glyph unicode="&#xd6;" d="M0 410q0 256 256 358q106 43 256 51h512q150 -8 256 -51q256 -102 256 -358t-256 -359q-106 -43 -256 -51h-512q-150 8 -256 51q-256 103 -256 359zM307 410q0 -285 205 -308h512q205 23 205 308t-205 307h-512q-205 -22 -205 -307zM410 1024q0 43 29.5 72.5t72.5 29.5 t72.5 -29.5t29.5 -72.5t-29.5 -72.5t-72.5 -29.5t-72.5 29.5t-29.5 72.5zM922 1024q0 43 29.5 72.5t72.5 29.5t72.5 -29.5t29.5 -72.5t-29.5 -72.5t-72.5 -29.5t-72.5 29.5t-29.5 72.5z" />
<glyph unicode="&#xd7;" horiz-adv-x="653" d="M31 313l143 146l-143 145l71 72l146 -146l143 146l74 -72l-146 -145l146 -146l-74 -71l-143 145l-146 -145z" />
<glyph unicode="&#xd8;" d="M0 410q0 -256 256 -359q106 -43 256 -51h512q150 8 256 51q256 102 256 359q0 256 -256 358q-106 43 -256 51h-512q-150 -8 -256 -51q-256 -102 -256 -358zM307 410q0 285 205 307h512q8 0 41 -8l-682 -545q-76 80 -76 246zM471 111l682 544q76 -80 76 -245 q0 -285 -205 -308h-512q-8 1 -41 9z" />
<glyph unicode="&#xd9;" d="M0 410q0 -256 256 -359q106 -43 256 -51h512q150 8 256 51q256 102 256 359v409h-307v-409q0 -285 -205 -308h-512q-205 23 -205 308v409h-307v-409zM471 1126h184l205 -204h-184z" />
<glyph unicode="&#xda;" d="M0 410q0 -256 256 -359q106 -43 256 -51h512q150 8 256 51q256 102 256 359v409h-307v-409q0 -285 -205 -308h-512q-205 23 -205 308v409h-307v-409zM492 922l204 204h185l-205 -204h-184z" />
<glyph unicode="&#xdb;" d="M0 410q0 -256 256 -359q106 -43 256 -51h512q150 8 256 51q256 102 256 359v409h-307v-409q0 -285 -205 -308h-512q-205 23 -205 308v409h-307v-409zM573 922v122l205 205l205 -205v-122l-205 204z" />
<glyph unicode="&#xdc;" d="M0 410q0 -256 256 -359q106 -43 256 -51h512q150 8 256 51q256 102 256 359v409h-307v-409q0 -285 -205 -308h-512q-205 23 -205 308v409h-307v-409zM410 1024q0 43 29.5 72.5t72.5 29.5t72.5 -29.5t29.5 -72.5t-29.5 -72.5t-72.5 -29.5t-72.5 29.5t-29.5 72.5zM922 1024 q0 43 29.5 72.5t72.5 29.5t72.5 -29.5t29.5 -72.5t-29.5 -72.5t-72.5 -29.5t-72.5 29.5t-29.5 72.5z" />
<glyph unicode="&#xdd;" horiz-adv-x="1536" d="M0 410v409h307v-409q0 -285 205 -308h512v717h307v-819q0 -256 -256 -358q-106 -43 -256 -52h-307v103h307q205 23 205 307h-512q-150 8 -256 51q-256 103 -256 359zM492 922l204 204h185l-205 -204h-184z" />
<glyph unicode="&#xde;" d="M0 -205v1229h307v-205h717q150 -8 256 -51q256 -102 256 -358t-256 -359q-106 -43 -256 -51h-717v-205h-307zM307 102h717q205 23 205 308t-205 307h-717v-615z" />
<glyph unicode="&#xdf;" d="M0 0v819h1024q150 -8 256 -51q256 -102 256 -358t-256 -359q-106 -43 -256 -51h-512v102h512q53 6 92 33q96 63 111 221h-711v103h711q-18 240 -203 258h-717v-717h-307zM1227 356v2v-2z" />
<glyph unicode="&#xe0;" d="M0 410q0 256 256 358q106 43 256 51h512q150 -8 256 -51q256 -102 256 -358v-410h-1024q-150 8 -256 51q-256 103 -256 359zM307 410q0 -285 205 -308h717v308q0 285 -205 307h-512q-205 -22 -205 -307zM553 1126h184l205 -204h-184z" />
<glyph unicode="&#xe1;" d="M0 410q0 256 256 358q106 43 256 51h512q150 -8 256 -51q256 -102 256 -358v-410h-1024q-150 8 -256 51q-256 103 -256 359zM307 410q0 -285 205 -308h717v308q0 285 -205 307h-512q-205 -22 -205 -307zM573 922l205 204h185l-205 -204h-185z" />
<glyph unicode="&#xe2;" d="M0 410q0 256 256 358q106 43 256 51h512q150 -8 256 -51q256 -102 256 -358v-410h-1024q-150 8 -256 51q-256 103 -256 359zM307 410q0 -285 205 -308h717v308q0 285 -205 307h-512q-205 -22 -205 -307zM553 922v122l205 205l205 -205v-122l-205 204z" />
<glyph unicode="&#xe3;" d="M0 410q0 256 256 358q106 43 256 51h512q150 -8 256 -51q256 -102 256 -358v-410h-1024q-150 8 -256 51q-256 103 -256 359zM307 410q0 -285 205 -308h717v308q0 285 -205 307h-512q-205 -22 -205 -307zM553 922v102q29 25 102 61q47 10 105 -55q63 -72 98 -72 q43 0 105 66v-102q-98 -66 -105 -66q-35 0 -96 72q-59 66 -107 55q-43 -10 -102 -61z" />
<glyph unicode="&#xe4;" d="M0 410q0 256 256 358q106 43 256 51h512q150 -8 256 -51q256 -102 256 -358v-410h-1024q-150 8 -256 51q-256 103 -256 359zM307 410q0 -285 205 -308h717v308q0 285 -205 307h-512q-205 -22 -205 -307zM410 1024q0 43 29.5 72.5t72.5 29.5t72.5 -29.5t29.5 -72.5 t-29.5 -72.5t-72.5 -29.5t-72.5 29.5t-29.5 72.5zM922 1024q0 43 29.5 72.5t72.5 29.5t72.5 -29.5t29.5 -72.5t-29.5 -72.5t-72.5 -29.5t-72.5 29.5t-29.5 72.5z" />
<glyph unicode="&#xe5;" d="M0 410q0 256 256 358q106 43 256 51h512q150 -8 256 -51q256 -102 256 -358v-410h-1024q-150 8 -256 51q-256 103 -256 359zM307 410q0 -285 205 -308h717v308q0 285 -205 307h-512q-205 -22 -205 -307zM573 1126q0 84 60.5 144.5t144.5 60.5t144.5 -60.5t60.5 -144.5 t-60.5 -144t-144.5 -60t-144.5 60t-60.5 144z" />
<glyph unicode="&#xe6;" horiz-adv-x="2048" d="M0 410q0 256 256 358q106 43 256 51h819q150 -8 256 -51q256 -102 256 -358h-819q0 -285 205 -308h307v-102h-1024q-150 8 -256 51q-256 103 -256 359zM307 410q0 -285 205 -308h205v615h-205q-205 -22 -205 -307zM1032 512h496q-37 190 -197 205h-102q-47 -4 -84 -25 q-88 -51 -113 -180z" />
<glyph unicode="&#xe7;" horiz-adv-x="1433" d="M0 410q0 256 256 358q106 43 256 51h717v-102h-717q-205 -23 -205 -307q0 -285 205 -308h717v-102h-410q6 -66 0 -102q-16 -94 -164 -205h-143q53 31 94 61q96 74 111 144q6 37 0 102h-205q-150 8 -256 51q-256 103 -256 359z" />
<glyph unicode="&#xe8;" d="M0 410q0 256 256 358q106 43 256 51h512q150 -8 256 -51q256 -102 256 -358h-1229q0 -285 205 -308h307v-102h-307q-150 8 -256 51q-256 103 -256 359zM315 512h906q-37 190 -197 205h-512q-47 -4 -84 -25q-88 -51 -113 -180zM553 1126h184l205 -204h-184z" />
<glyph unicode="&#xe9;" d="M0 410q0 256 256 358q106 43 256 51h512q150 -8 256 -51q256 -102 256 -358h-1229q0 -285 205 -308h307v-102h-307q-150 8 -256 51q-256 103 -256 359zM315 512h906q-37 190 -197 205h-512q-47 -4 -84 -25q-88 -51 -113 -180zM573 922l205 204h185l-205 -204h-185z" />
<glyph unicode="&#xea;" d="M0 410q0 256 256 358q106 43 256 51h512q150 -8 256 -51q256 -102 256 -358h-1229q0 -285 205 -308h307v-102h-307q-150 8 -256 51q-256 103 -256 359zM315 512h906q-37 190 -197 205h-512q-47 -4 -84 -25q-88 -51 -113 -180zM553 922v122l205 205l205 -205v-122 l-205 204z" />
<glyph unicode="&#xeb;" d="M0 410q0 256 256 358q106 43 256 51h512q150 -8 256 -51q256 -102 256 -358h-1229q0 -285 205 -308h307v-102h-307q-150 8 -256 51q-256 103 -256 359zM315 512h906q-37 190 -197 205h-512q-47 -4 -84 -25q-88 -51 -113 -180zM410 1024q0 43 29.5 72.5t72.5 29.5 t72.5 -29.5t29.5 -72.5t-29.5 -72.5t-72.5 -29.5t-72.5 29.5t-29.5 72.5zM922 1024q0 43 29.5 72.5t72.5 29.5t72.5 -29.5t29.5 -72.5t-29.5 -72.5t-72.5 -29.5t-72.5 29.5t-29.5 72.5z" />
<glyph unicode="&#xec;" horiz-adv-x="512" d="M-41 1126h184l205 -204h-184zM0 0v819h307v-819h-307z" />
<glyph unicode="&#xed;" horiz-adv-x="512" d="M-20 922l204 204h185l-205 -204h-184zM0 0v819h307v-819h-307z" />
<glyph unicode="&#xee;" horiz-adv-x="512" d="M-61 922v122l204 205l205 -205v-122l-205 204zM0 0v819h307v-819h-307z" />
<glyph unicode="&#xef;" horiz-adv-x="512" d="M-102 1024q0 43 29.5 72.5t72.5 29.5t72.5 -29.5t29.5 -72.5t-29.5 -72.5t-72.5 -29.5t-72.5 29.5t-29.5 72.5zM0 0v819h307v-819h-307zM205 1024q0 43 29.5 72.5t72.5 29.5t73 -29.5t30 -72.5t-30 -72.5t-73 -29.5t-72.5 29.5t-29.5 72.5z" />
<glyph unicode="&#xf0;" d="M0 410q0 256 256 358q106 43 256 51h717v103h-205v102h205v102h307v-102h102v-102h-102v-512q0 -256 -256 -359q-106 -43 -256 -51h-512q-150 8 -256 51q-256 103 -256 359zM307 410q0 -285 205 -308h512q205 23 205 308v307h-717q-205 -22 -205 -307z" />
<glyph unicode="&#xf1;" horiz-adv-x="1536" d="M0 0v819h799q156 -8 266 -51q266 -102 266 -358v-410h-307v410q0 285 -225 307h-492v-717h-307zM451 983v102q29 25 102 62q47 10 104 -55q63 -72 97 -72q45 0 106 65v-102q-98 -66 -104 -65q-35 0 -97 71q-59 66 -106 55q-43 -10 -102 -61z" />
<glyph unicode="&#xf2;" d="M0 410q0 256 256 358q106 43 256 51h512q150 -8 256 -51q256 -102 256 -358t-256 -359q-106 -43 -256 -51h-512q-150 8 -256 51q-256 103 -256 359zM307 410q0 -285 205 -308h512q205 23 205 308t-205 307h-512q-205 -22 -205 -307zM553 1126h184l205 -204h-184z" />
<glyph unicode="&#xf3;" d="M0 410q0 256 256 358q106 43 256 51h512q150 -8 256 -51q256 -102 256 -358t-256 -359q-106 -43 -256 -51h-512q-150 8 -256 51q-256 103 -256 359zM307 410q0 -285 205 -308h512q205 23 205 308t-205 307h-512q-205 -22 -205 -307zM573 922l205 204h185l-205 -204h-185z " />
<glyph unicode="&#xf4;" d="M0 410q0 256 256 358q106 43 256 51h512q150 -8 256 -51q256 -102 256 -358t-256 -359q-106 -43 -256 -51h-512q-150 8 -256 51q-256 103 -256 359zM307 410q0 -285 205 -308h512q205 23 205 308t-205 307h-512q-205 -22 -205 -307zM553 922v122l205 205l205 -205v-122 l-205 204z" />
<glyph unicode="&#xf5;" d="M0 410q0 256 256 358q106 43 256 51h512q150 -8 256 -51q256 -102 256 -358t-256 -359q-106 -43 -256 -51h-512q-150 8 -256 51q-256 103 -256 359zM307 410q0 -285 205 -308h512q205 23 205 308t-205 307h-512q-205 -22 -205 -307zM553 922v102q29 25 102 61 q47 10 105 -55q63 -72 98 -72q43 0 105 66v-102q-98 -66 -105 -66q-35 0 -96 72q-59 66 -107 55q-43 -10 -102 -61z" />
<glyph unicode="&#xf6;" d="M0 410q0 256 256 358q106 43 256 51h512q150 -8 256 -51q256 -102 256 -358t-256 -359q-106 -43 -256 -51h-512q-150 8 -256 51q-256 103 -256 359zM307 410q0 -285 205 -308h512q205 23 205 308t-205 307h-512q-205 -22 -205 -307zM410 1024q0 43 29.5 72.5t72.5 29.5 t72.5 -29.5t29.5 -72.5t-29.5 -72.5t-72.5 -29.5t-72.5 29.5t-29.5 72.5zM922 1024q0 43 29.5 72.5t72.5 29.5t72.5 -29.5t29.5 -72.5t-29.5 -72.5t-72.5 -29.5t-72.5 29.5t-29.5 72.5z" />
<glyph unicode="&#xf7;" horiz-adv-x="716" d="M0 410v102h512v-102h-512zM205 205v102h102v-102h-102zM205 614v103h102v-103h-102z" />
<glyph unicode="&#xf8;" d="M0 410q0 -256 256 -359q106 -43 256 -51h512q150 8 256 51q256 102 256 359q0 256 -256 358q-106 43 -256 51h-512q-150 -8 -256 -51q-256 -102 -256 -358zM307 410q0 285 205 307h512q8 0 41 -8l-682 -545q-76 80 -76 246zM471 111l682 544q76 -80 76 -245 q0 -285 -205 -308h-512q-8 1 -41 9z" />
<glyph unicode="&#xf9;" horiz-adv-x="1536" d="M0 410v409h307v-409q0 -285 225 -308h492v717h307v-819h-799q-156 8 -266 51q-266 103 -266 359zM471 1126h184l205 -204h-184z" />
<glyph unicode="&#xfa;" horiz-adv-x="1536" d="M0 410v409h307v-409q0 -285 225 -308h492v717h307v-819h-799q-156 8 -266 51q-266 103 -266 359zM492 922l204 204h185l-205 -204h-184z" />
<glyph unicode="&#xfb;" horiz-adv-x="1536" d="M0 410v409h307v-409q0 -285 225 -308h492v717h307v-819h-799q-156 8 -266 51q-266 103 -266 359zM471 922v122l205 205l205 -205v-122l-205 204z" />
<glyph unicode="&#xfc;" horiz-adv-x="1536" d="M0 410v409h307v-409q0 -285 225 -308h492v717h307v-819h-799q-156 8 -266 51q-266 103 -266 359zM307 1024q0 43 30 72.5t73 29.5t72.5 -29.5t29.5 -72.5t-29.5 -72.5t-72.5 -29.5t-73 29.5t-30 72.5zM819 1024q0 43 30 72.5t73 29.5t72.5 -29.5t29.5 -72.5t-29.5 -72.5 t-72.5 -29.5t-73 29.5t-30 72.5z" />
<glyph unicode="&#xfd;" horiz-adv-x="1536" d="M0 410v409h307v-409q0 -285 205 -308h512v717h307v-819q0 -256 -256 -358q-106 -43 -256 -52h-307v103h307q205 23 205 307h-512q-150 8 -256 51q-256 103 -256 359zM492 922l204 204h185l-205 -204h-184z" />
<glyph unicode="&#xfe;" horiz-adv-x="1433" d="M0 -205v1229h307v-205h410q150 -8 256 -51q256 -102 256 -358t-256 -359q-106 -43 -256 -51h-410v-205h-307zM307 102h410q205 23 205 308t-205 307h-410v-615z" />
<glyph unicode="&#xff;" horiz-adv-x="1536" d="M0 410v409h307v-409q0 -285 205 -308h512v717h307v-819q0 -256 -256 -358q-106 -43 -256 -52h-307v103h307q205 23 205 307h-512q-150 8 -256 51q-256 103 -256 359zM307 1024q0 43 30 72.5t73 29.5t72.5 -29.5t29.5 -72.5t-29.5 -72.5t-72.5 -29.5t-73 29.5t-30 72.5z M819 1024q0 43 30 72.5t73 29.5t72.5 -29.5t29.5 -72.5t-29.5 -72.5t-72.5 -29.5t-73 29.5t-30 72.5z" />
<glyph unicode="&#x152;" horiz-adv-x="3174" d="M1741 410q0 256 256 358q106 43 256 51h717v-102h-717q-53 -6 -94 -33q-96 -63 -109 -225h920v-103h-920q20 -236 203 -254h717v-102h-717q-150 8 -256 51q-256 103 -256 359zM0 410q0 256 256 358q106 43 256 51h512q150 -8 256 -51q256 -102 256 -358t-256 -359 q-106 -43 -256 -51h-512q-150 8 -256 51q-256 103 -256 359zM307 410q0 -285 205 -308h512q205 23 205 308t-205 307h-512q-205 -22 -205 -307z" />
<glyph unicode="&#x153;" horiz-adv-x="3481" d="M1741 410q0 256 256 358q106 43 256 51h512q150 -8 256 -51q256 -102 256 -358h-1229q0 -285 205 -308h307v-102h-307q-150 8 -256 51q-256 103 -256 359zM2056 512h906q-37 190 -197 205h-512q-47 -4 -84 -25q-88 -51 -113 -180zM0 410q0 256 256 358q106 43 256 51h512 q150 -8 256 -51q256 -102 256 -358t-256 -359q-106 -43 -256 -51h-512q-150 8 -256 51q-256 103 -256 359zM307 410q0 -285 205 -308h512q205 23 205 308t-205 307h-512q-205 -22 -205 -307z" />
<glyph unicode="&#x178;" horiz-adv-x="1536" d="M0 410v409h307v-409q0 -285 205 -308h512v717h307v-819q0 -256 -256 -358q-106 -43 -256 -52h-307v103h307q205 23 205 307h-512q-150 8 -256 51q-256 103 -256 359zM307 1024q0 43 30 72.5t73 29.5t72.5 -29.5t29.5 -72.5t-29.5 -72.5t-72.5 -29.5t-73 29.5t-30 72.5z M819 1024q0 43 30 72.5t73 29.5t72.5 -29.5t29.5 -72.5t-29.5 -72.5t-72.5 -29.5t-73 29.5t-30 72.5z" />
<glyph unicode="&#x2c6;" horiz-adv-x="614" d="M0 922v122l205 205l205 -205v-122l-205 204z" />
<glyph unicode="&#x2dc;" horiz-adv-x="614" d="M0 922v102q29 25 102 61q47 10 105 -55q63 -72 98 -72q43 0 105 66v-102q-98 -66 -105 -66q-35 0 -98 72q-57 66 -105 55q-43 -10 -102 -61z" />
<glyph unicode="&#x2000;" horiz-adv-x="819" />
<glyph unicode="&#x2001;" horiz-adv-x="1638" />
<glyph unicode="&#x2002;" horiz-adv-x="819" />
<glyph unicode="&#x2003;" horiz-adv-x="1638" />
<glyph unicode="&#x2004;" horiz-adv-x="544" />
<glyph unicode="&#x2005;" horiz-adv-x="409" />
<glyph unicode="&#x2006;" horiz-adv-x="272" />
<glyph unicode="&#x2007;" horiz-adv-x="272" />
<glyph unicode="&#x2008;" horiz-adv-x="204" />
<glyph unicode="&#x2009;" horiz-adv-x="327" />
<glyph unicode="&#x200a;" horiz-adv-x="90" />
<glyph unicode="&#x2010;" horiz-adv-x="921" d="M0 410v102h717v-102h-717z" />
<glyph unicode="&#x2011;" horiz-adv-x="921" d="M0 410v102h717v-102h-717z" />
<glyph unicode="&#x2012;" horiz-adv-x="921" d="M0 410v102h717v-102h-717z" />
<glyph unicode="&#x2013;" horiz-adv-x="716" d="M0 410v102h512v-102h-512z" />
<glyph unicode="&#x2014;" horiz-adv-x="921" d="M0 410v102h717v-102h-717z" />
<glyph unicode="&#x2018;" horiz-adv-x="614" d="M0 1126h184l205 -204h-184z" />
<glyph unicode="&#x2019;" horiz-adv-x="307" d="M0 922v204h102v-204h-102z" />
<glyph unicode="&#x201c;" horiz-adv-x="512" d="M0 922v204h102v-204h-102zM205 922v204h102v-204h-102z" />
<glyph unicode="&#x201d;" horiz-adv-x="512" d="M0 922v204h102v-204h-102zM205 922v204h102v-204h-102z" />
<glyph unicode="&#x2022;" horiz-adv-x="614" d="M0 512q0 84 60.5 144.5t144.5 60.5t144.5 -60.5t60.5 -144.5t-60.5 -144.5t-144.5 -60.5t-144.5 60.5t-60.5 144.5z" />
<glyph unicode="&#x2026;" horiz-adv-x="1024" d="M0 102q0 43 29.5 73t72.5 30t73 -30t30 -73t-30 -72.5t-73 -29.5t-72.5 29.5t-29.5 72.5zM307 102q0 43 30 73t73 30t72.5 -30t29.5 -73t-29.5 -72.5t-72.5 -29.5t-73 29.5t-30 72.5zM614 102q0 43 30 73t73 30t72.5 -30t29.5 -73t-29.5 -72.5t-72.5 -29.5t-73 29.5 t-30 72.5z" />
<glyph unicode="&#x202f;" horiz-adv-x="327" />
<glyph unicode="&#x2039;" horiz-adv-x="614" d="M0 430l332 332l63 -64l-270 -268l272 -270l-63 -64z" />
<glyph unicode="&#x203a;" horiz-adv-x="614" d="M0 160l63 -64l334 334l-334 332l-61 -64l268 -268z" />
<glyph unicode="&#x205f;" horiz-adv-x="409" />
<glyph unicode="&#x2122;" horiz-adv-x="1689" d="M0 973v51h666v-51h-256v-359h-154v359h-256zM717 614v205q0 190 256 205h256q256 -14 256 -205v-205h-154v205q0 143 -102 154h-51v-359h-154v359h-51q-102 -10 -103 -154v-205h-153z" />
<glyph unicode="&#xe000;" horiz-adv-x="820" d="M0 820h820v-820h-820v820z" />
<glyph unicode="&#xfb01;" horiz-adv-x="1638" d="M1126 0v819h307v-819h-307zM0 0v922q0 256 256 358q106 43 256 51h410v-102h-410q-205 -23 -205 -307v-103h512v-102h-512v-717h-307z" />
<glyph unicode="&#xfb02;" horiz-adv-x="1638" d="M1126 410v921h307v-1331q-90 8 -153 51q-154 103 -154 359zM0 0v922q0 256 256 358q106 43 256 51h410v-102h-410q-205 -23 -205 -307v-103h512v-102h-512v-717h-307z" />
<glyph unicode="&#xfb03;" horiz-adv-x="2764" d="M2253 0v819h307v-819h-307zM1126 0v922q0 256 256 358q106 43 256 51h410v-102h-410q-205 -23 -205 -307v-103h512v-102h-512v-717h-307zM0 0v922q0 256 256 358q106 43 256 51h410v-102h-410q-205 -23 -205 -307v-103h512v-102h-512v-717h-307z" />
<glyph unicode="&#xfb04;" horiz-adv-x="2764" d="M2253 410v921h307v-1331q-90 8 -153 51q-154 103 -154 359zM1126 0v922q0 256 256 358q106 43 256 51h410v-102h-410q-205 -23 -205 -307v-103h512v-102h-512v-717h-307zM0 0v922q0 256 256 358q106 43 256 51h410v-102h-410q-205 -23 -205 -307v-103h512v-102h-512v-717 h-307z" />
</font>
</defs>
</svg>
