<?xml version="1.0" standalone="no"?>
<!DOCTYPE svg PUBLIC "-//W3C//DTD SVG 1.1//EN" "http://www.w3.org/Graphics/SVG/1.1/DTD/svg11.dtd" >
<svg xmlns="http://www.w3.org/2000/svg">
<metadata>
This is a custom SVG webfont generated by Font Squirrel.
Copyright   : Copyright c 2011 by monocromo All rights reserved
Designer    : Andrea Cerboneschi for monocromo
Foundry     : monocromo
Foundry URL : httpwwwstudiomonocromoit
</metadata>
<defs>
<font id="OpificioRegular" horiz-adv-x="1140" >
<font-face units-per-em="2048" ascent="1638" descent="-410" />
<missing-glyph horiz-adv-x="686" />
<glyph unicode=" "  horiz-adv-x="686" />
<glyph unicode="&#x09;" horiz-adv-x="686" />
<glyph unicode="&#xa0;" horiz-adv-x="686" />
<glyph unicode="!" horiz-adv-x="282" d="M53 86q0 37 24.5 61.5t61.5 24.5t61.5 -24.5t24.5 -61.5t-24.5 -61.5t-61.5 -24.5t-61.5 24.5t-24.5 61.5zM70 268v1166h143v-1166h-143z" />
<glyph unicode="&#x22;" horiz-adv-x="493" d="M82 1100v334h127v-334h-127zM287 1100v334h127v-334h-127z" />
<glyph unicode="#" horiz-adv-x="1157" d="M63 561v144h265l51 176h-246v143h285l117 410h151l-117 -410h176l117 410h152l-117 -410h209v-143h-248l-51 -176h229v-144h-270l-158 -561h-151l157 561h-176l-157 -561h-152l158 561h-224zM479 705h176l52 176h-177z" />
<glyph unicode="$" horiz-adv-x="1093" d="M37 428h143q0 -70 30 -131t81 -106.5t119 -71.5q41 -16 82 -23v615q-84 29 -160 63q-92 41 -162 103.5t-90 164.5q-10 88 25.5 168t102 140.5t157.5 95.5q61 25 127 33v104h143v-106q61 -8 113 -33q82 -39 139 -93.5t89 -113.5t38 -100h-158q-39 98 -123 149 q-47 29 -98 41v-520q14 -4 31 -8q102 -33 188 -85t142.5 -134t56.5 -213q0 -98 -41 -176t-109.5 -131.5t-159.5 -79.5q-53 -16 -108 -25v-107h-143v107q-66 8 -130 31q-94 35 -165.5 97t-115.5 150.5t-44 194.5zM229 1053q16 -72 83 -114t159 -75l21 -8v479q-33 -6 -64 -16 q-63 -23 -111.5 -61.5t-74 -92t-13.5 -112.5zM635 100q27 4 53 13q63 16 112.5 50t79 84t29.5 120q0 100 -55 161.5t-141 100.5q-37 18 -78 35v-564z" />
<glyph unicode="%" horiz-adv-x="729" d="M55 0l461 1434h158l-467 -1434h-152zM55 1350q0 37 24.5 61.5t61.5 24.5t61.5 -25t24.5 -61q0 -37 -24.5 -61.5t-61.5 -24.5t-61.5 24.5t-24.5 61.5zM504 86q0 37 24.5 61.5t61.5 24.5t61.5 -24.5t24.5 -61.5t-24.5 -61.5t-61.5 -24.5t-61.5 24.5t-24.5 61.5z" />
<glyph unicode="&#x26;" horiz-adv-x="1298" d="M60.5 419q7.5 93 55.5 182t138 159l127 104l-35 37q-59 66 -92 122t-33 122q0 59 22.5 112.5t61.5 92.5t91.5 61.5t111.5 22.5t112.5 -22.5t92.5 -61.5t61.5 -92.5t22.5 -112.5q0 -84 -42 -144.5t-108 -107.5l-63 -45l383 -424l200 205l103 -103l-207 -209l203 -223 l-107 -94l-196 217l-134 -131q-68 -68 -151.5 -101.5t-172.5 -33.5t-173 32.5t-152 100.5t-97.5 155t-22 180zM195.5 401.5q-5.5 -59.5 18.5 -114t71 -99.5q45 -47 103 -69.5t118.5 -23.5t118 21.5t104.5 69.5l137 138l-383 440l-131 -111q-78 -66 -114.5 -129t-42 -122.5z M365 1145q2 -51 34.5 -92t61.5 -70l28 -31l44 27.5t53.5 42.5t45 55.5t19.5 67.5q0 59 -42 101t-101 42t-102 -42t-41 -101z" />
<glyph unicode="'" horiz-adv-x="286" d="M82 1100v334h127v-334h-127z" />
<glyph unicode="(" horiz-adv-x="407" d="M74 -143v1529q0 63 24.5 119t65.5 95.5t97 63.5t118 24v-146q-33 0 -61.5 -12t-51 -32.5t-36 -49.5t-13.5 -62v-1529q0 -33 13.5 -61.5t36 -49t51 -33t61.5 -12.5v-145q-61 0 -117.5 23.5t-97.5 63.5t-65.5 95.5t-24.5 118.5z" />
<glyph unicode=")" horiz-adv-x="407" d="M33 -299q33 0 61.5 12.5t51 33t36 49t13.5 61.5v1529q0 33 -13.5 62t-36 49.5t-51 32.5t-61.5 12v146q61 0 117.5 -24t97.5 -63.5t65.5 -95t24.5 -119.5v-1529q0 -63 -24.5 -118.5t-65.5 -95.5t-97.5 -63.5t-117.5 -23.5v145z" />
<glyph unicode="*" horiz-adv-x="430" d="M37 1190l100 57l-100 58l37 67l102 -59v121h76v-121l104 59l37 -67l-102 -58l102 -57l-37 -64l-104 58v-119h-76v119l-102 -58z" />
<glyph unicode="+" horiz-adv-x="729" d="M16 557v143h275v275h143v-275h281v-143h-281v-281h-143v281h-275z" />
<glyph unicode="," horiz-adv-x="274" d="M51 86q0 37 24.5 61.5t61.5 24.5t61.5 -24.5t24.5 -61.5v-80q0 -41 -12 -72.5t-49 -52.5q-51 -27 -65.5 -10.5t1.5 41.5q16 20 27.5 39.5t11.5 48.5q-37 0 -61.5 24.5t-24.5 61.5z" />
<glyph unicode="-" horiz-adv-x="862" d="M82 557v143h698v-143h-698z" />
<glyph unicode="." horiz-adv-x="288" d="M59 86q0 37 25 61.5t61 24.5q37 0 61.5 -24.5t24.5 -61.5t-24.5 -61.5t-61.5 -24.5t-61.5 24.5t-24.5 61.5z" />
<glyph unicode="/" horiz-adv-x="638" d="M10 0l467 1434h152l-467 -1434h-152z" />
<glyph unicode="0" horiz-adv-x="1644" d="M57 717q0 158 60.5 297t165 243.5t244 165t296.5 60.5q158 0 297.5 -60.5t243.5 -165t164.5 -244t60.5 -296.5q0 -158 -60.5 -297t-164.5 -243.5t-243.5 -165t-297.5 -60.5t-297 60.5t-243.5 165t-165 243.5t-60.5 297zM201 717q0 -127 49 -241t134 -198.5t198.5 -134 t240.5 -49.5t240 49.5t198 134t134 198.5t49 241t-49 239.5t-134 197.5t-198 134t-240 49t-240.5 -49t-198.5 -134t-134 -197.5t-49 -239.5z" />
<glyph unicode="1" horiz-adv-x="438" d="M8 1292v142h350v-1434h-143v1292h-207z" />
<glyph unicode="2" horiz-adv-x="1036" d="M37 0v143l702 662q45 45 68.5 103.5t23.5 117.5t-23.5 116.5t-68.5 102.5q-47 45 -103 68.5t-116.5 23.5t-118 -23.5t-102.5 -68.5q-43 -43 -65.5 -97t-26.5 -112h-144q2 86 35 166t99 146q68 68 150.5 100.5t170.5 32.5t171 -33t151 -100q68 -68 100.5 -151t32.5 -170 t-33 -171t-100 -149l-594 -564h745v-143h-954z" />
<glyph unicode="3" horiz-adv-x="1214" d="M55 510h144q0 -86 32 -162q33 -76 90.5 -133t134 -90t162.5 -33t163 33t134.5 90t90 134t32.5 163t-32.5 163t-104.5 142.5t-172 87.5q-109 18 -205 4v154l310 227h-697v144h907v-2l3 2v-144l-285 -233q39 -10 76 -27q102 -43 179 -119.5t121 -179t44 -219.5t-44 -219.5 t-121 -179t-179.5 -120.5t-219.5 -44t-219 44t-179 120.5t-122 179.5q-43 100 -43 217z" />
<glyph unicode="4" horiz-adv-x="995" d="M27 258l284 1176h148l-250 -1033h461v252h143v-252h168v-143h-168v-258h-143v258h-643z" />
<glyph unicode="5" horiz-adv-x="1220" d="M117 510h143q0 -86 33 -162t90 -133t134 -90t163 -33t163 33t134 90t90 134t33 163t-33 163t-90 134t-134 90t-173 33q-98 0 -184.5 -34t-137.5 -103h-143l127 639h712v-144h-598l-57 -297q135 84 291 82q117 0 219 -44t179 -120.5t121 -179t44 -219.5t-44 -219.5 t-121 -179t-179 -120.5t-219 -44t-219.5 44t-179 120.5t-121.5 179.5q-43 100 -43 217z" />
<glyph unicode="6" horiz-adv-x="1239" d="M63 514v406q0 117 44.5 219t121 179t179 121t219.5 44t219 -45q96 -41 170 -115l-98 -100q-55 53 -130 82q-76 33 -161 32q-86 0 -163 -31.5t-134.5 -89t-90 -134t-32.5 -162.5v-31q10 12 20 22q78 78 180.5 122t219.5 44t219 -44t179 -120.5t121 -179t44 -219.5 t-44 -219t-121 -179t-179.5 -121t-218.5 -44q-117 0 -219.5 44t-179 121t-121 179t-44.5 219zM207 514q0 -86 32.5 -163t90 -134t134.5 -90t163 -33t162.5 33t134 90t90.5 134t33 163t-33 163t-90.5 134t-134 90t-162.5 33t-163 -33t-134.5 -90t-90 -134t-32.5 -163z" />
<glyph unicode="7" horiz-adv-x="1013" d="M47 0l707 1290h-707v144h961l-787 -1434h-174z" />
<glyph unicode="8" horiz-adv-x="1216" d="M45 514q0 117 44 219.5t121 179t179 119.5l6 2q-61 74 -61 174q0 57 21.5 107.5t58.5 87.5t87 58.5t107 21.5t107.5 -21.5t87.5 -58.5t58.5 -87t21.5 -108q0 -100 -62 -174l6 -2q102 -43 179 -119.5t121 -179t44 -219.5t-44 -219t-120.5 -179t-179 -121t-219.5 -44 t-219 44t-179 121t-121 179t-44 219zM188 514q0 -86 33 -163t90.5 -134t134 -90t162.5 -33t163 33t134.5 90t90 134t32.5 163t-32.5 163t-90 134t-135.5 90q-72 31 -152 33h-10q-86 0 -162.5 -33t-134 -90t-90.5 -134t-33 -163zM477 1208q0 -53 39 -92t92 -39h10q49 4 85 41 t36 90t-38.5 92t-92.5 39q-53 0 -92 -39t-39 -92z" />
<glyph unicode="9" horiz-adv-x="1239" d="M49 920q0 117 44 219t121 179t179.5 121t218.5 44q117 0 219.5 -44t179 -121t121 -179.5t44.5 -218.5v-25q-2 -500 -46 -600q-43 -102 -119.5 -179t-179 -121t-219.5 -44t-219 45q-96 41 -170 115l99 100q55 -53 129 -82q76 -33 161 -33q86 0 163 32t134.5 89t90 134 t32.5 163v29l-22 -23q-76 -76 -178.5 -120t-219.5 -44t-219 44t-179 121t-121 179.5t-44 219.5zM193 920q0 -86 32.5 -163t90 -134.5t134 -90t162.5 -32.5t163 32.5t134.5 90t90 134.5t32.5 163t-32.5 162.5t-90 134t-134.5 90t-163 32.5t-162.5 -32.5t-134 -90t-90 -134 t-32.5 -162.5z" />
<glyph unicode=":" horiz-adv-x="296" d="M63 86q0 37 25 61.5t62 24.5t61.5 -24.5t24.5 -61.5t-25 -61.5t-61 -24.5q-37 0 -62 24.5t-25 61.5zM63 938q0 37 25 61.5t62 24.5t61.5 -24.5t24.5 -61.5t-25 -61.5t-61 -24.5q-37 0 -62 24.5t-25 61.5z" />
<glyph unicode=";" horiz-adv-x="284" d="M51 86q0 37 24.5 61.5t61.5 24.5t61.5 -24.5t24.5 -61.5v-80q0 -27 -11 -53.5t-40 -44.5q-51 -27 -65.5 -10.5t8.5 36.5q49 27 35 66q-57 0 -78 24.5t-21 61.5zM51 938q0 37 24.5 61.5t61.5 24.5t61.5 -24.5t24.5 -61.5t-24.5 -61.5t-61.5 -24.5t-61.5 24.5t-24.5 61.5z " />
<glyph unicode="&#x3c;" horiz-adv-x="897" d="M6 436v158l813 352v-158l-631 -274l631 -272v-158z" />
<glyph unicode="=" horiz-adv-x="1138" d="M82 299v143h975v-143h-975zM82 586v143h975v-143h-975z" />
<glyph unicode="&#x3e;" horiz-adv-x="901" d="M82 84v158l631 272l-631 274v158l813 -352v-158z" />
<glyph unicode="?" horiz-adv-x="1015" d="M16 1139q57 139 180 217t283 78q104 0 196.5 -40t161 -108.5t108.5 -161t40 -196.5q0 -96 -33.5 -182.5t-93 -153t-140.5 -109.5t-173 -55v-160h-144v291h78q76 0 143.5 28.5t118 79t79 117t28.5 144.5q0 76 -28.5 143.5t-79 117.5t-118 78.5t-143.5 28.5 q-102 0 -182 -38.5t-129 -118.5h-152zM389 86q0 37 24.5 61.5t61.5 24.5t61.5 -24.5t24.5 -61.5t-24.5 -61.5t-61.5 -24.5t-61.5 24.5t-24.5 61.5z" />
<glyph unicode="@" horiz-adv-x="1656" d="M57 716.5q0 157.5 60.5 297t165 244t244 165t296.5 60.5q158 0 297.5 -60.5t243.5 -165t164.5 -244t60.5 -296.5v-551q0 -43 -17.5 -83t-46 -68.5t-67.5 -46t-84 -17.5t-84 17.5t-67.5 46t-45 68.5t-16.5 83v209q-66 -63 -151 -101q-86 -37 -187 -36q-100 0 -187 37.5 t-151.5 102t-102.5 151.5t-38 187.5t38 187.5t102.5 152.5t151.5 103.5t187 38t187.5 -38t153 -103.5t103.5 -152.5t38 -187v-551q0 -29 20.5 -49.5t48.5 -20.5q29 0 50.5 20.5t21.5 49.5v551q0 129 -49 241.5t-134 197.5t-198 134t-242 49t-241.5 -49t-197.5 -134 t-134 -197.5t-49 -241.5t49 -242t134 -197.5t197.5 -134t241.5 -49.5v-143q-158 0 -297 60.5t-243.5 165t-165 243.5t-60.5 296.5zM485 717q0 -70 27 -131.5t73 -107.5t107.5 -72.5t130.5 -26.5q70 0 131.5 26.5t107.5 72.5t72.5 107.5t26.5 131.5t-26.5 131t-72.5 107 t-107.5 73t-131.5 27t-131 -27t-107 -73t-73 -107t-27 -131z" />
<glyph unicode="A" horiz-adv-x="1134" d="M33 0l459 1434h151l459 -1434h-150l-180 557h-412l-178 -557h-149zM408 700h319l-160 498z" />
<glyph unicode="B" horiz-adv-x="1091" d="M82 0v1434h385q221 0 348 -103q123 -104 123 -284q0 -92 -32 -162t-91 -123q-4 -4 -8 -6q57 -23 102 -58q63 -59 96 -129.5t33 -169.5q0 -182 -129 -295q-133 -104 -358 -104h-469zM225 145h328q160 0 240 68q88 74 88 188q0 123 -88 193q-80 68 -240 68h-328v-517z M225 801h307q94 0 170 65q82 66 82 181q0 113 -82 182q-88 66 -231 65h-246v-493z" />
<glyph unicode="C" horiz-adv-x="1562" d="M57 716.5q0 157.5 60.5 297t165 244t244 165t296.5 60.5q158 0 297.5 -60.5t243.5 -165.5q80 -80 133 -180h-172q-29 41 -65 76q-84 86 -197 135t-240 49t-240.5 -49t-198.5 -134t-134 -197.5t-49 -239.5t49 -241t134 -198.5t198.5 -134t240.5 -49.5t240 49.5t197 132.5 q37 37 67 80h170q-53 -100 -133 -180q-104 -104 -243.5 -164.5t-297.5 -60.5t-297 60.5t-243.5 165t-165 243.5t-60.5 296.5z" />
<glyph unicode="D" horiz-adv-x="1329" d="M82 0v1434h481q147 0 278.5 -56.5t227.5 -153t152.5 -227.5t56.5 -278t-56.5 -278.5t-152.5 -229.5t-227 -154.5t-279 -56.5h-481zM225 143h338q119 0 222.5 45t181 124t123 183.5t45.5 223.5t-45.5 222t-123 181t-181 123t-222.5 45h-338v-1147z" />
<glyph unicode="E" horiz-adv-x="1062" d="M82 0v1434h954v-144h-811v-590h668v-143h-668v-414h811v-143h-954z" />
<glyph unicode="F" horiz-adv-x="1103" d="M82 0v1434h954v-144h-811v-590h668v-143h-668v-557h-143z" />
<glyph unicode="G" horiz-adv-x="1628" d="M57 716.5q0 157.5 60.5 297t165 244t244 165t296.5 60.5q158 0 297.5 -60.5t243.5 -165.5q80 -80 133 -180h-172q-29 41 -65 76q-84 86 -197 135t-240 49t-240.5 -49t-198.5 -134t-134 -197.5t-49 -239.5t49 -241t134 -198.5t198.5 -134t240.5 -49.5t246 40t205 155 q82 109 82 254v14h-479v143h645v-11q0 -329 -120 -478q-122 -152 -271.5 -206t-307.5 -54t-297 60.5t-243.5 165t-165 243.5t-60.5 296.5z" />
<glyph unicode="H" horiz-adv-x="1118" d="M82 0v1434h143v-734h668v734h143v-1434h-143v557h-668v-557h-143z" />
<glyph unicode="I" horiz-adv-x="303" d="M82 0v1434h143v-1434h-143z" />
<glyph unicode="J" horiz-adv-x="1054" d="M27 428h143q0 -70 25.5 -130t70.5 -105.5t106.5 -72t131.5 -26.5t130 26.5t105 72t72 105.5t27 130v862h-668v144h811v-1006q0 -98 -38 -185t-102.5 -151.5t-151.5 -102.5t-185 -38t-185.5 38t-152 102.5t-102 151.5t-37.5 185z" />
<glyph unicode="K" horiz-adv-x="1081" d="M82 0v1434h143v-650l535 650h196l-550 -662l628 -772h-180l-543 659l-86 -102v-557h-143z" />
<glyph unicode="L" horiz-adv-x="1095" d="M82 0v1434h143v-1291h811v-143h-954z" />
<glyph unicode="M" horiz-adv-x="1366" d="M82 0v1434h143l457 -625l461 625h143v-1434h-143v1192l-461 -625l-457 623v-1190h-143z" />
<glyph unicode="N" horiz-adv-x="1118" d="M82 0v1434h143l668 -1147v1147h143v-1434h-143l-668 1147v-1147h-143z" />
<glyph unicode="O" horiz-adv-x="1644" d="M57 717q0 158 60.5 297t165 243.5t244 165t296.5 60.5q158 0 297.5 -60.5t243.5 -165t164.5 -244t60.5 -296.5q0 -158 -60.5 -297t-164.5 -243.5t-243.5 -165t-297.5 -60.5t-297 60.5t-243.5 165t-165 243.5t-60.5 297zM201 717q0 -127 49 -241t134 -198.5t198.5 -134 t240.5 -49.5t240 49.5t198 134t134 198.5t49 241t-49 239.5t-134 197.5t-198 134t-240 49t-240.5 -49t-198.5 -134t-134 -197.5t-49 -239.5z" />
<glyph unicode="P" horiz-adv-x="1019" d="M82 0v1434h426q221 0 348 -103q123 -104 123 -334q0 -147 -32 -216.5t-91 -123.5q-127 -100 -348 -100h-283v-557h-143zM225 696h287q143 0 231 66q82 66 82 235q0 162 -82 232q-88 66 -231 65h-287v-598z" />
<glyph unicode="Q" horiz-adv-x="1630" d="M45 717q0 158 60.5 297t165 243.5t243.5 165t297 60.5t297 -60.5t243.5 -165t165 -244t60.5 -296.5q0 -158 -60.5 -297t-164.5 -244q-98 -98 -230 -158q8 -31 35 -55q37 -35 88 -35v-143q-55 0 -103 20.5t-84 56.5t-57 85q-6 12 -10 26q-88 -23 -180 -22 q-158 0 -297 60.5t-243.5 165t-165 243.5t-60.5 297zM188 717q0 -127 49.5 -241t134.5 -198.5t198.5 -134t240.5 -49.5q78 0 152 19q-8 12 -19 22q-37 35 -88 35v143q55 0 103.5 -20.5t82.5 -56.5q33 -31 52 -72q86 45 153 112q86 86 135.5 200t49.5 241t-49.5 239.5 t-134.5 197.5t-197.5 134t-239.5 49t-240.5 -49t-198.5 -134t-134.5 -197.5t-49.5 -239.5z" />
<glyph unicode="R" horiz-adv-x="1040" d="M82 0v1434h426q209 0 342 -103q63 -59 96 -146t33 -186q0 -225 -129 -337q-27 -20 -57 -39q29 -16 55 -35q129 -113 129 -295v-293h-143v293q0 61 -23 108.5t-68 85.5q-76 70 -213 70h-305v-557h-143zM225 692h285q152 0 233 70q90 76 91 239q0 162 -91 234 q-82 70 -233 70h-285v-613z" />
<glyph unicode="S" horiz-adv-x="1118" d="M49 428h144q0 -70 29.5 -131t80.5 -106.5t120 -71.5q64 -25 134 -25h10q70 2 133.5 18.5t112.5 50.5t79 84t30 120q0 100 -55.5 161.5t-140.5 101.5t-187.5 71.5t-194.5 72.5t-161.5 103.5t-90.5 164.5q-2 20 -2 39q0 67 28 129q36 80 102.5 140.5t157.5 96.5t189 36 q111 0 193 -39t139 -93.5t89 -113.5t38 -100h-158q-39 98 -122.5 149t-178.5 53q-5 0 -10 1l-117 -21q-63 -23 -111 -61.5t-74 -92.5q-17 -36 -17 -74q0 -19 4 -38q16 -72 82.5 -114t158.5 -75t194.5 -65.5t188.5 -84.5t142.5 -134t56.5 -213q0 -98 -41 -176t-109.5 -131.5 t-158.5 -81t-189 -27.5q-98 0 -192 34.5t-166 97t-116 151t-44 194.5z" />
<glyph unicode="T" horiz-adv-x="995" d="M20 1290v144h955v-144h-406v-1290h-143v1290h-406z" />
<glyph unicode="U" horiz-adv-x="1101" d="M74 428v1006h143v-1006q0 -70 25.5 -131t70.5 -106.5t106.5 -71t131.5 -25.5t131 25.5t106.5 71t71 106.5t25.5 131v1006h143v-1006q0 -100 -37 -187t-101.5 -151.5t-151.5 -101.5t-187 -37t-187.5 37t-152 101.5t-101 151.5t-36.5 187z" />
<glyph unicode="V" horiz-adv-x="1134" d="M33 1434h149l385 -1198l385 1198h150l-459 -1434h-151z" />
<glyph unicode="W" horiz-adv-x="1357" d="M82 0v1434h143v-1190l457 622l461 -624v1192h143v-1434h-143l-461 625l-457 -625h-143z" />
<glyph unicode="X" horiz-adv-x="1077" d="M61 0l394 717l-369 717h166l287 -562l284 562h166l-368 -717l395 -717h-164l-313 561l-314 -561h-164z" />
<glyph unicode="Y" horiz-adv-x="1122" d="M27 1434h157l377 -732l377 732h158l-457 -871v-563h-154v559z" />
<glyph unicode="Z" horiz-adv-x="1052" d="M49 0v143l782 1147h-782v144h955v-144l-787 -1147h787v-143h-955z" />
<glyph unicode="[" horiz-adv-x="456" d="M82 -446v2134h358v-144h-215v-1847h215v-143h-358z" />
<glyph unicode="\" horiz-adv-x="638" d="M10 1434h152l467 -1434h-152z" />
<glyph unicode="]" horiz-adv-x="454" d="M16 -303h215v1847h-215v144h359v-2134h-359v143z" />
<glyph unicode="^" horiz-adv-x="931" d="M35 621l352 813h158l352 -813h-158l-274 630l-272 -630h-158z" />
<glyph unicode="_" horiz-adv-x="1196" d="M82 0v143h1032v-143h-1032z" />
<glyph unicode="`" horiz-adv-x="329" d="M35 1434h151l105 -260h-152z" />
<glyph unicode="a" horiz-adv-x="1249" d="M55 514q0 117 44 219.5t121 179t179.5 120.5t218.5 44q117 0 219.5 -44t179.5 -120.5t121 -179t44 -219.5v-514h-144v137l-22 -22q-76 -76 -178.5 -120t-219.5 -44t-219 44t-179 121t-121 179t-44 219zM199 514q0 -86 32.5 -163t90 -134t134 -90t162.5 -33t163 33 t134.5 90t90.5 133q29 70 32 146v18q0 86 -32.5 163t-90 134t-134 90t-163.5 33q-86 0 -162.5 -33t-134 -90t-90 -134t-32.5 -163z" />
<glyph unicode="b" horiz-adv-x="1220" d="M43 514v920h143v-574q57 92 180 154.5t240 62.5t219.5 -44t179 -120.5t120.5 -179t44 -219.5t-44 -219t-120.5 -179t-179 -121t-219.5 -44t-219 44t-179 121t-121 179t-44 219zM186 514q0 -86 33 -163t90.5 -134t134 -90t162.5 -33t163 33t134.5 90t90 134t32.5 163 t-32.5 163t-90 134t-134.5 90t-163 33t-162.5 -33t-134 -90t-90.5 -134t-33 -163z" />
<glyph unicode="c" horiz-adv-x="1185" d="M55 514q0 117 44 219.5t121 179t179.5 120.5t218.5 44q117 0 219.5 -44t179.5 -120.5t120 -179.5l6 -14h-160q-27 51 -68 92q-57 57 -133.5 90t-163.5 33q-86 0 -162.5 -33t-134 -90t-90 -134t-32.5 -163t32.5 -163t90 -134t134 -90t162.5 -33t163 33t134 90q41 41 70 94 h158l-6 -16q-43 -102 -120 -179t-179.5 -121t-219.5 -44t-219 44t-179 121t-121 179t-44 219z" />
<glyph unicode="d" horiz-adv-x="1220" d="M23 514q0 117 44 219.5t120.5 179t179 120.5t219.5 44t239.5 -62.5t180.5 -154.5v574h143v-920q0 -117 -44 -219t-121 -179t-179.5 -121t-218.5 -44q-117 0 -219.5 44t-179 121t-120.5 179t-44 219zM166 514q0 -86 32.5 -163t90 -134t134.5 -90t163 -33t162.5 33t134 90 t90.5 134t33 163t-33 163t-90.5 134t-134 90t-162.5 33t-163 -33t-134.5 -90t-90 -134t-32.5 -163z" />
<glyph unicode="e" horiz-adv-x="1224" d="M55 514q0 117 44 219.5t121 179t179.5 120.5t218.5 44q117 0 219.5 -44t179.5 -120.5t120 -179.5q37 -84 43 -176h-979q-2 -23 -2 -43q0 -86 32.5 -163t90 -134t134 -90t162.5 -33t163 33t134 90q41 41 70 94h158l-6 -16q-43 -102 -120 -179t-179.5 -121t-219.5 -44 t-219 44t-179 121t-121 179t-44 219zM242 700h751q-31 61 -78 111q-57 57 -133.5 90t-163.5 33q-86 0 -162.5 -33t-133.5 -90q-49 -50 -80 -111z" />
<glyph unicode="f" horiz-adv-x="649" d="M-20 557v143h104v459q0 57 21.5 107.5t58.5 87.5t87 58.5t107 21.5t107.5 -21.5t88.5 -58.5t59.5 -87t21.5 -108h-143q0 53 -39 91t-93 38q-53 0 -91 -38t-38 -91v-459h265v-143h-265v-557h-147v557h-104z" />
<glyph unicode="g" horiz-adv-x="1251" d="M53 514q0 117 44 219.5t121 179t179.5 120.5t218.5 44q117 0 219.5 -44t178.5 -122q12 -10 22 -22v135h144v-487v-431q0 -117 -44 -219t-121 -179t-179.5 -121t-219.5 -44t-219 44t-180 122q-41 41 -74 92l105 105q29 -53 71 -96q57 -57 134 -90t163 -33t163 32.5 t134.5 90t90 134t32.5 162.5v31l-22 -22q-76 -76 -178.5 -120t-219.5 -44t-219 44t-179 121t-121 179t-44 219zM197 514q0 -86 32.5 -163t90 -134t134 -90t162.5 -33t163 33t134.5 90t90 134t32.5 179q0 80 -28 148q-37 76 -94.5 133t-134.5 90t-163 33t-162.5 -33t-134 -90 t-90 -134t-32.5 -163z" />
<glyph unicode="h" horiz-adv-x="1085" d="M82 0v1434h147v-500q25 33 59 59.5t76 45t87 28.5t90 10q94 0 178 -36.5t146.5 -99t99 -146.5t36.5 -179v-2l3 -614h-148l-2 614v2q0 66 -24.5 123.5t-67.5 99.5t-100.5 66.5t-120.5 24.5q-61 0 -117.5 -26.5t-98.5 -71t-68 -100.5t-26 -118v-614h-149z" />
<glyph unicode="i" horiz-adv-x="274" d="M53 1348q0 37 24.5 61.5t61.5 24.5t61.5 -25t24.5 -61q0 -37 -24.5 -61.5t-61.5 -24.5t-61.5 24.5t-24.5 61.5zM66 0v1024h143v-1024h-143z" />
<glyph unicode="j" horiz-adv-x="307" d="M-319 -129h147q0 -53 38 -91t91 -38t92 38t39 91v1153h143v-1153q0 -57 -21.5 -107.5t-59 -87t-88 -58t-107.5 -21.5t-107.5 21.5t-87 58t-58 87t-21.5 107.5zM74 1348q0 37 24.5 61.5t61.5 24.5t61.5 -25t24.5 -61q0 -37 -24.5 -61.5t-61.5 -24.5t-61.5 24.5t-24.5 61.5 z" />
<glyph unicode="k" horiz-adv-x="804" d="M82 1434h143v-748l381 338h170l-440 -416l463 -608h-185l-389 516l2 -516h-143z" />
<glyph unicode="l" horiz-adv-x="303" d="M82 0v1434h143v-1434h-143z" />
<glyph unicode="m" horiz-adv-x="1851" d="M82 1024h147v-92q49 66 134.5 105.5t177.5 39.5q121 0 218 -58t161 -155q61 96 166.5 154.5t228.5 58.5q94 0 178 -36.5t146.5 -99t98.5 -147.5t36 -180l2 -614h-148l-2 614q0 66 -24.5 123.5t-66.5 100.5t-98.5 67.5t-121.5 24.5q-66 0 -122 -24.5t-99 -67.5t-68 -100.5 t-25 -123.5l3 -614h-148l-2 614q-4 68 -29.5 126.5t-67.5 100.5t-97.5 65.5t-118.5 23.5t-119.5 -26.5t-99.5 -71t-68 -100.5t-25 -118l2 -614h-147z" />
<glyph unicode="n" horiz-adv-x="1071" d="M80 0v1024h143v-94q20 33 55 60.5t77 47t89.5 29.5t94.5 10q94 0 178 -36.5t146.5 -99t99 -147.5t36.5 -180l2 -614h-147l-2 614q0 66 -24.5 123.5t-67.5 100.5t-100.5 67.5t-120.5 24.5t-121 -26.5t-101 -71t-68.5 -101.5t-25.5 -117l2 -614h-145z" />
<glyph unicode="o" horiz-adv-x="1236" d="M55 514q0 117 44 219.5t121 179t179.5 120.5t218.5 44q117 0 219.5 -44t179.5 -120.5t121 -179t44 -219.5t-44 -219t-121 -179t-179.5 -121t-219.5 -44t-219 44t-179 121t-121 179t-44 219zM199 514q0 -86 32.5 -163t90 -134t134 -90t162.5 -33t163 33t134.5 90t90 134 t32.5 163t-32.5 163t-90 134t-134 90t-163.5 33q-86 0 -162.5 -33t-134 -90t-90 -134t-32.5 -163z" />
<glyph unicode="p" horiz-adv-x="1263" d="M63 -408v920q0 117 44.5 219.5t121 179t179 120.5t219.5 44t219 -44t179 -120.5t121 -179t44 -219.5t-44 -219.5t-121 -179t-179.5 -120.5t-218.5 -44q-117 0 -240 62.5t-180 154.5v-574h-144zM207 512q0 -86 32.5 -163t90 -134t134.5 -90t163 -33t162.5 33t134 90 t90.5 134t33 163t-33 163t-90.5 134t-134 90t-162.5 33t-163 -33t-134.5 -90t-90 -134t-32.5 -163z" />
<glyph unicode="q" horiz-adv-x="1259" d="M63 512q0 117 44.5 219.5t121 179t179 120.5t219.5 44t219 -44t179 -120.5t121 -179t44 -219.5v-920h-143v574q-57 -92 -180.5 -154.5t-239.5 -62.5q-117 0 -219.5 44t-179 120.5t-121 179t-44.5 219.5zM207 512q0 -86 32.5 -163t90 -134t134.5 -90t163 -33t162.5 33 t134 90t90.5 134t33 163t-33 163t-90.5 134t-134 90t-162.5 33t-163 -33t-134.5 -90t-90 -134t-32.5 -163z" />
<glyph unicode="r" horiz-adv-x="702" d="M82 1024h143v-195q10 20 23 33q78 78 180 122t219 44v-143q-86 0 -162.5 -33t-134 -90t-90.5 -134t-33 -163v-465h-143z" />
<glyph unicode="s" horiz-adv-x="849" d="M53 311h146q0 -53 21.5 -99t77.5 -84q53 -36 135 -36h9q100 0 150.5 48t54.5 116q2 70 -25.5 108.5t-81 63.5t-133 45.5t-147 49t-117 86t-59.5 143.5q-2 16 -2 31q0 50 20 94q27 57 75 101t115.5 71.5t139.5 27.5q82 0 142.5 -26.5t101.5 -68.5t64.5 -85t27.5 -74h-154 q-18 59 -69 91t-113 32q-41 0 -88 -16.5t-87 -65.5q-32 -39 -32 -82q0 -11 2 -22q10 -49 48 -76t100.5 -49.5t138.5 -47t142.5 -66.5t103.5 -105.5t37 -159.5q0 -72 -30 -129t-80 -96t-116.5 -59.5t-138.5 -20.5t-141.5 25.5t-122.5 71.5t-85 111q-30 61 -30 142v10z" />
<glyph unicode="t" horiz-adv-x="591" d="M37 881v143h104v410h144v-410h268v-143h-268v-881h-144v881h-104z" />
<glyph unicode="u" horiz-adv-x="1060" d="M70 1024h147l2 -561v-2q0 -66 24.5 -123t67.5 -99t99.5 -67t121.5 -25q66 0 123.5 25t100.5 67t67.5 99t24.5 123v563h143v-563q0 -94 -35.5 -178t-98 -146.5t-146.5 -99.5t-179 -37q-94 0 -178 37t-146.5 99.5t-99 146.5t-36.5 178v2z" />
<glyph unicode="v" horiz-adv-x="1116" d="M33 1024h157l367 -844l369 844h157l-446 -1024h-158z" />
<glyph unicode="w" horiz-adv-x="1843" d="M76 414v610h143v-610q0 -66 24.5 -123.5t66.5 -100.5t99.5 -67.5t122.5 -24.5q63 0 121 24.5t101 67.5t68.5 100.5t25.5 123.5v610h147v-610q2 -70 28 -127.5t68 -99.5t97 -65.5t119 -23.5q66 0 123 24.5t99 67.5t66.5 100.5t24.5 123.5v610h147v-610q0 -96 -35.5 -180 t-99 -146.5t-147.5 -99.5t-178 -37q-123 0 -224.5 57.5t-162.5 155.5q-63 -98 -165 -155.5t-223 -57.5q-96 0 -179 37t-144.5 99.5t-97 146.5t-35.5 180z" />
<glyph unicode="x" horiz-adv-x="841" d="M68 0l270 512l-270 512h165l189 -354l188 354h166l-272 -512l272 -512h-164l-190 356l-191 -356h-163z" />
<glyph unicode="y" horiz-adv-x="1073" d="M70 1024h147l2 -561v-2q0 -66 24.5 -123t67.5 -99t99.5 -67t121.5 -25q66 0 123.5 25t100.5 67t67.5 99t24.5 123v563h143v-563q0 -94 -35.5 -178t-98 -146.5t-146.5 -99.5q-51 -23 -107 -33l2 -463h-145l-2 463q-55 10 -105 33q-84 37 -146.5 99.5t-99 146.5t-36.5 178 v2z" />
<glyph unicode="z" horiz-adv-x="841" d="M68 0l467 881h-467v143h708l-469 -881h469v-143h-708z" />
<glyph unicode="{" horiz-adv-x="524" d="M12 551v145q33 0 61.5 12.5t51 33t36 49t13.5 61.5v534q0 63 24.5 119t65.5 95.5t97.5 63.5t117.5 24v-146q-33 0 -61.5 -12t-51 -32.5t-36 -49.5t-13.5 -62v-534q0 -72 -29.5 -130t-76.5 -99q47 -41 76.5 -99.5t29.5 -128.5v-538q0 -33 13.5 -61.5t36 -49t51 -33 t61.5 -12.5v-145q-61 0 -117.5 23.5t-97.5 63.5t-65.5 95t-24.5 119v538q0 63 -44 107.5t-105 48.5h-13z" />
<glyph unicode="|" horiz-adv-x="303" d="M82 -440v2128h143v-2128h-143z" />
<glyph unicode="}" horiz-adv-x="526" d="M47 -299q33 0 61.5 12.5t51 33t36 49t13.5 61.5v538q0 70 29.5 128.5t76.5 99.5q-47 41 -76.5 99t-29.5 130v534q0 33 -13.5 62t-36 49.5t-51 32.5t-61.5 12v146q61 0 117.5 -24t97.5 -63.5t65.5 -95t24.5 -119.5v-534q0 -33 13.5 -61.5t36 -49t51 -33t61.5 -12.5v-145 h-12q-61 -4 -105.5 -48t-44.5 -108v-538q0 -63 -24.5 -118.5t-65.5 -95.5t-97 -63.5t-118 -23.5v145z" />
<glyph unicode="~" horiz-adv-x="1019" d="M55 791v100h148v-100q0 -53 38 -91t91 -38q45 0 79.5 29.5t71.5 64.5t85 64.5t120 29.5q57 0 107.5 -21.5t87.5 -58.5t58.5 -87t21.5 -108v-100h-148v100q0 53 -38 91.5t-91 38.5q-45 0 -79 -30t-70.5 -65t-85 -64.5t-121.5 -29.5q-57 0 -107.5 21.5t-87.5 58.5 t-58.5 87.5t-21.5 107.5z" />
<glyph unicode="&#xa2;" horiz-adv-x="1132" d="M29 514q0 117 44 219.5t120.5 179t179.5 119.5q68 31 143 39v301h143v-299q78 -10 152 -41q102 -43 179 -119.5t120 -179.5l6 -14h-160q-27 51 -67 92q-57 57 -135 90q-45 18 -95 27v-830q49 8 95 29q78 33 135 90q41 41 69 94h158l-6 -16q-43 -102 -120 -179t-179 -120 q-74 -31 -152 -41v-301h-143v301q-76 10 -143 41q-102 43 -179 120t-121 179t-44 219zM172 514q0 -86 33 -163t90 -134t133 -90q43 -18 88 -27v828q-45 -8 -88 -27q-76 -33 -133 -90t-90 -134t-33 -163z" />
<glyph unicode="&#xa3;" horiz-adv-x="743" d="M43 606v144h104v458q0 57 21.5 107.5t58.5 87.5t87.5 58.5t107.5 21.5t107.5 -21.5t88 -58.5t59 -87t21.5 -108h-143q0 53 -39 91t-92 38t-91 -37.5t-38 -91.5v-458h264v-144h-264v-463h401v-143h-549v606h-104z" />
<glyph unicode="&#xa5;" d="M35 1434h149l383 -729h2l385 729h150l-383 -729h340v-144h-414v-147h414v-144h-414v-270h-153v270h-408v144h408v145l-2 2h-406v144h332z" />
<glyph unicode="&#xa8;" horiz-adv-x="647" d="M74 1608q0 37 24.5 61.5t61.5 24.5t61.5 -24.5t24.5 -61.5t-24.5 -61.5t-61.5 -24.5t-61.5 24.5t-24.5 61.5zM401 1608q0 37 25 61.5t61 24.5q37 0 61.5 -24.5t24.5 -61.5t-24.5 -61.5t-61.5 -24.5t-61.5 24.5t-24.5 61.5z" />
<glyph unicode="&#xa9;" horiz-adv-x="1644" d="M57 717q0 158 60.5 297t165 243.5t244 165t296.5 60.5q158 0 297.5 -60.5t243.5 -165t164.5 -244t60.5 -296.5q0 -158 -60.5 -297t-164.5 -243.5t-243.5 -165t-297.5 -60.5t-297 60.5t-243.5 165t-165 243.5t-60.5 297zM201 717q0 -127 49 -241t134 -198.5t198.5 -134 t240.5 -49.5t240 49.5t198 134t134 198.5t49 241t-49 239.5t-134 197.5t-198 134t-240 49t-240.5 -49t-198.5 -134t-134 -197.5t-49 -239.5zM336 716.5q0 102.5 39 191.5t107.5 159t156.5 106.5t190 36.5q104 0 192.5 -36.5t158 -106.5t106.5 -160l2 -12h-137q-27 47 -59 80 q-49 53 -117 82.5t-146 29.5q-74 0 -140 -29.5t-117.5 -81.5t-80 -118.5t-28.5 -140.5t28.5 -140.5t80 -118.5t118 -82t139.5 -30q78 0 145.5 30t117.5 83q33 33 59 80h137l-2 -13q-37 -90 -106.5 -159.5t-157.5 -106.5t-193 -37q-102 0 -190 37t-156.5 106.5t-107.5 158.5 t-39 191.5z" />
<glyph unicode="&#xaa;" horiz-adv-x="1249" d="M55 514q0 117 44 219.5t121 179t179.5 120.5t218.5 44q117 0 219.5 -44t179.5 -120.5t121 -179t44 -219.5v-514h-144v137l-22 -22q-76 -76 -178.5 -120t-219.5 -44t-219 44t-179 121t-121 179t-44 219zM199 514q0 -86 32.5 -163t90 -134t134 -90t162.5 -33t163 33 t134.5 90t90.5 133q29 70 32 146v18q0 86 -32.5 163t-90 134t-134 90t-163.5 33q-86 0 -162.5 -33t-134 -90t-90 -134t-32.5 -163z" />
<glyph unicode="&#xab;" horiz-adv-x="1095" d="M25 510l510 510l100 -102l-408 -408l408 -408l-100 -102zM414 510l510 510l100 -102l-408 -408l408 -408l-100 -102z" />
<glyph unicode="&#xad;" horiz-adv-x="862" d="M82 557v143h698v-143h-698z" />
<glyph unicode="&#xae;" horiz-adv-x="1644" d="M57 717q0 158 60.5 297t165 243.5t244 165t296.5 60.5q158 0 297.5 -60.5t243.5 -165t164.5 -244t60.5 -296.5q0 -158 -60.5 -297t-164.5 -243.5t-243.5 -165t-297.5 -60.5t-297 60.5t-243.5 165t-165 243.5t-60.5 297zM201 717q0 -127 49 -241t134 -198.5t198.5 -134 t240.5 -49.5t240 49.5t198 134t134 198.5t49 241t-49 239.5t-134 197.5t-198 134t-240 49t-240.5 -49t-198.5 -134t-134 -197.5t-49 -239.5zM551 250v983h264q195 0 280 -87t85 -202t-63.5 -166t-108.5 -55q39 0 104.5 -53.5t65.5 -173.5v-246h-144v231q0 104 -65.5 140 t-130.5 36h-144v-407h-143zM694 793h123q111 0 163 30.5t54 116.5v12q0 59 -46 105.5t-171 46.5h-123v-311z" />
<glyph unicode="&#xb1;" horiz-adv-x="774" d="M39 0v143h698v-143h-698zM39 557v143h274v275h144v-275h280v-143h-280v-281h-144v281h-274z" />
<glyph unicode="&#xb2;" horiz-adv-x="1036" d="M37 0v143l702 662q45 45 68.5 103.5t23.5 117.5t-23.5 116.5t-68.5 102.5q-47 45 -103 68.5t-116.5 23.5t-118 -23.5t-102.5 -68.5q-43 -43 -65.5 -97t-26.5 -112h-144q2 86 35 166t99 146q68 68 150.5 100.5t170.5 32.5t171 -33t151 -100q68 -68 100.5 -151t32.5 -170 t-33 -171t-100 -149l-594 -564h745v-143h-954z" />
<glyph unicode="&#xb3;" horiz-adv-x="1214" d="M55 510h144q0 -86 32 -162q33 -76 90.5 -133t134 -90t162.5 -33t163 33t134.5 90t90 134t32.5 163t-32.5 163t-104.5 142.5t-172 87.5q-109 18 -205 4v154l310 227h-697v144h907v-2l3 2v-144l-285 -233q39 -10 76 -27q102 -43 179 -119.5t121 -179t44 -219.5t-44 -219.5 t-121 -179t-179.5 -120.5t-219.5 -44t-219 44t-179 120.5t-122 179.5q-43 100 -43 217z" />
<glyph unicode="&#xb4;" horiz-adv-x="329" d="M39 1174l104 260h152l-105 -260h-151z" />
<glyph unicode="&#xb5;" horiz-adv-x="1081" d="M82 -406v1430h147v-563q0 -66 25 -123t68 -99t100 -67t123 -25t123 25t100 67t67.5 99t24.5 123v563h144v-563q0 -94 -36 -178t-98.5 -146.5t-146.5 -99.5t-178 -37q-92 0 -172 33t-142 92v-531h-149z" />
<glyph unicode="&#x3bc;" horiz-adv-x="1081" d="M82 -406v1430h147v-563q0 -66 25 -123t68 -99t100 -67t123 -25t123 25t100 67t67.5 99t24.5 123v563h144v-563q0 -94 -36 -178t-98.5 -146.5t-146.5 -99.5t-178 -37q-92 0 -172 33t-142 92v-531h-149z" />
<glyph unicode="&#xb7;" horiz-adv-x="288" d="M59 645q0 37 25 61.5t61 24.5q37 0 61.5 -24.5t24.5 -61.5t-24.5 -61.5t-61.5 -24.5t-61.5 24.5t-24.5 61.5z" />
<glyph unicode="&#xb8;" horiz-adv-x="471" d="M82 0h143v-113q43 0 83 -17t69 -46t46 -68t17 -84t-17 -84t-46 -67.5t-69 -45t-83 -16.5h-143v144h143q29 0 49.5 20.5t20.5 48.5q0 29 -20.5 50.5t-49.5 21.5h-143v256z" />
<glyph unicode="&#xb9;" horiz-adv-x="438" d="M8 1292v142h350v-1434h-143v1292h-207z" />
<glyph unicode="&#xba;" horiz-adv-x="1236" d="M55 514q0 117 44 219.5t121 179t179.5 120.5t218.5 44q117 0 219.5 -44t179.5 -120.5t121 -179t44 -219.5t-44 -219t-121 -179t-179.5 -121t-219.5 -44t-219 44t-179 121t-121 179t-44 219zM199 514q0 -86 32.5 -163t90 -134t134 -90t162.5 -33t163 33t134.5 90t90 134 t32.5 163t-32.5 163t-90 134t-134 90t-163.5 33q-86 0 -162.5 -33t-134 -90t-90 -134t-32.5 -163z" />
<glyph unicode="&#xbb;" horiz-adv-x="1095" d="M72 102l407 408l-407 408l100 102l510 -510l-510 -510zM461 102l407 408l-407 408l100 102l510 -510l-510 -510z" />
<glyph unicode="&#xbc;" horiz-adv-x="2072" d="M1104 258l284 1176h148l-250 -1033h461v252h143v-252h168v-143h-168v-258h-143v258h-643zM448 0l467 1434h152l-467 -1434h-152zM8 1292v142h350v-1434h-143v1292h-207z" />
<glyph unicode="&#xbd;" horiz-adv-x="2113" d="M1114 0v143l702 662q45 45 68.5 103.5t23.5 117.5t-23.5 116.5t-68.5 102.5q-47 45 -103 68.5t-116.5 23.5t-118 -23.5t-102.5 -68.5q-43 -43 -65.5 -97t-26.5 -112h-144q2 86 35 166t99 146q68 68 150.5 100.5t170.5 32.5t171 -33t151 -100q68 -68 100.5 -151t32.5 -170 t-33 -171t-100 -149l-594 -564h745v-143h-954zM448 0l467 1434h152l-467 -1434h-152zM8 1292v142h350v-1434h-143v1292h-207z" />
<glyph unicode="&#xbe;" horiz-adv-x="2848" d="M1880 258l284 1176h148l-250 -1033h461v252h143v-252h168v-143h-168v-258h-143v258h-643zM1224 0l467 1434h152l-467 -1434h-152zM55 510h144q0 -86 32 -162q33 -76 90.5 -133t134 -90t162.5 -33t163 33t134.5 90t90 134t32.5 163t-32.5 163t-104.5 142.5t-172 87.5 q-109 18 -205 4v154l310 227h-697v144h907v-2l3 2v-144l-285 -233q39 -10 76 -27q102 -43 179 -119.5t121 -179t44 -219.5t-44 -219.5t-121 -179t-179.5 -120.5t-219.5 -44t-219 44t-179 120.5t-122 179.5q-43 100 -43 217z" />
<glyph unicode="&#xbf;" horiz-adv-x="1015" d="M31 506q0 96 33.5 182t93 152.5t140.5 109.5t173 56v159h143v-291h-77q-76 0 -143.5 -28.5t-118 -78.5t-79 -117.5t-28.5 -143.5t28.5 -143.5t79 -117.5t118 -79t143.5 -29q102 0 182 39t129 119h151q-57 -139 -180 -217t-282 -78q-104 0 -196.5 40t-161 108.5 t-108.5 161t-40 196.5zM455 1348q0 37 24.5 61.5t61.5 24.5t61.5 -25t24.5 -61q0 -37 -24.5 -61.5t-61.5 -24.5t-61.5 24.5t-24.5 61.5z" />
<glyph unicode="&#xc0;" d="M33 0l459 1434h151l459 -1434h-150l-180 557h-412l-178 -557h-149zM408 700h319l-160 498zM385 1833h151l105 -260h-152z" />
<glyph unicode="&#xc1;" d="M756.004 1835h-150.981l-104.987 -260h151.981zM33 0l459 1434h151l459 -1434h-150l-180 557h-412l-178 -557h-149zM408 700h319l-160 498z" />
<glyph unicode="&#xc2;" d="M33 0l459 1434h151l459 -1434h-150l-180 557h-412l-178 -557h-149zM408 700h319l-160 498zM291 1525l186 267h183l188 -267h-156l-122 172l-125 -172h-154z" />
<glyph unicode="&#xc3;" d="M33 0l459 1434h151l459 -1434h-150l-180 557h-412l-178 -557h-149zM408 700h319l-160 498zM301 1620q49 84 135 107.5t170 -23.5q31 -18 57.5 -9t44.5 40l127 -76q-49 -84 -135 -107.5t-170 25.5q-31 20 -57.5 10t-44.5 -43z" />
<glyph unicode="&#xc4;" d="M33 0l459 1434h151l459 -1434h-150l-180 557h-412l-178 -557h-149zM408 700h319l-160 498zM318 1717q0 37 24.5 61.5t61.5 24.5t61.5 -24.5t24.5 -61.5t-24.5 -61.5t-61.5 -24.5t-61.5 24.5t-24.5 61.5zM645 1717q0 37 25 61.5t61 24.5q37 0 61.5 -24.5t24.5 -61.5 t-24.5 -61.5t-61.5 -24.5t-61.5 24.5t-24.5 61.5z" />
<glyph unicode="&#xc6;" horiz-adv-x="1574" d="M43 0l459 1434h1030v-144h-811v-590h668v-143h-668v-414h811v-143h-954v557h-207l-178 -557h-150zM418 700h160v498z" />
<glyph unicode="&#xc7;" horiz-adv-x="1576" d="M57 716.5q0 157.5 60.5 297t165 244t244 165t296.5 60.5q158 0 297.5 -60.5t243.5 -165.5q80 -80 133 -180h-172q-29 41 -65 76q-84 86 -197 135t-240 49t-240.5 -49t-198.5 -134t-134 -197.5t-49 -239.5t49 -241t134 -198.5t198.5 -134t240.5 -49.5t240 49.5t197 132.5 q37 37 67 80h170q-53 -100 -133 -180q-104 -104 -243.5 -164.5t-297.5 -60.5t-297 60.5t-243.5 165t-165 243.5t-60.5 296.5zM727 0h143v-113q43 0 83 -17t69 -46t46 -68t17 -84t-17 -84t-46 -67.5t-69 -45t-83 -16.5h-143v144h143q29 0 49.5 20.5t20.5 48.5 q0 29 -20.5 50.5t-49.5 21.5h-143v256z" />
<glyph unicode="&#xc8;" horiz-adv-x="1103" d="M82 0v1434h954v-144h-811v-590h668v-143h-668v-414h811v-143h-954zM402 1835h151l105 -260h-152z" />
<glyph unicode="&#xc9;" horiz-adv-x="1091" d="M82 0v1434h954v-144h-811v-590h668v-143h-668v-414h811v-143h-954zM762.004 1835h-150.981l-104.987 -260h151.981z" />
<glyph unicode="&#xca;" horiz-adv-x="1091" d="M82 0v1434h954v-144h-811v-590h668v-143h-668v-414h811v-143h-954zM299 1575l186 267h183l188 -267h-156l-122 172l-125 -172h-154z" />
<glyph unicode="&#xcb;" horiz-adv-x="1107" d="M82 0v1434h954v-144h-811v-590h668v-143h-668v-414h811v-143h-954zM318 1719q0 37 24.5 61.5t61.5 24.5t61.5 -24.5t24.5 -61.5t-24.5 -61.5t-61.5 -24.5t-61.5 24.5t-24.5 61.5zM645 1719q0 37 25 61.5t61 24.5q37 0 61.5 -24.5t24.5 -61.5t-24.5 -61.5t-61.5 -24.5 t-61.5 24.5t-24.5 61.5z" />
<glyph unicode="&#xcc;" horiz-adv-x="321" d="M90 0v1434h143v-1434h-143zM-14 1835h151l105 -260h-152z" />
<glyph unicode="&#xcd;" horiz-adv-x="313" d="M86 0v1434h143v-1434h-143zM344.004 1835h-150.981l-104.987 -260h151.981z" />
<glyph unicode="&#xce;" horiz-adv-x="307" d="M82 0v1434h143v-1434h-143zM-117 1575l186 267h183l188 -267h-156l-122 172l-125 -172h-154z" />
<glyph unicode="&#xcf;" horiz-adv-x="311" d="M82 0v1434h143v-1434h-143zM-92 1719q0 37 24.5 61.5t61.5 24.5t61.5 -24.5t24.5 -61.5t-24.5 -61.5t-61.5 -24.5t-61.5 24.5t-24.5 61.5zM235 1719q0 37 25 61.5t61 24.5q37 0 61.5 -24.5t24.5 -61.5t-24.5 -61.5t-61.5 -24.5t-61.5 24.5t-24.5 61.5z" />
<glyph unicode="&#xd0;" horiz-adv-x="1376" d="M-78 645v143h203v646h481q147 0 278.5 -56.5t227.5 -153t152.5 -227.5t56.5 -278t-56.5 -278.5t-152.5 -229.5t-227 -154.5t-279 -56.5h-481v645h-203zM268 143h338q119 0 222.5 45t181 124t123 183.5t45.5 223.5t-45.5 222t-123 181t-181 123t-222.5 45h-338v-502h353 v-143h-353v-502z" />
<glyph unicode="&#xd1;" horiz-adv-x="1118" d="M82 0v1434h143l668 -1147v1147h143v-1434h-143l-668 1147v-1147h-143zM285 1622q49 84 135 107.5t170 -23.5q31 -18 57.5 -9t44.5 40l127 -76q-49 -84 -135 -107.5t-170 25.5q-31 20 -57.5 10t-44.5 -43z" />
<glyph unicode="&#xd2;" horiz-adv-x="1650" d="M57 717q0 158 60.5 297t165 243.5t244 165t296.5 60.5q158 0 297.5 -60.5t243.5 -165t164.5 -244t60.5 -296.5q0 -158 -60.5 -297t-164.5 -243.5t-243.5 -165t-297.5 -60.5t-297 60.5t-243.5 165t-165 243.5t-60.5 297zM201 717q0 -127 49 -241t134 -198.5t198.5 -134 t240.5 -49.5t240 49.5t198 134t134 198.5t49 241t-49 239.5t-134 197.5t-198 134t-240 49t-240.5 -49t-198.5 -134t-134 -197.5t-49 -239.5zM629 1835h151l105 -260h-152z" />
<glyph unicode="&#xd3;" horiz-adv-x="1669" d="M57 717q0 158 60.5 297t165 243.5t244 165t296.5 60.5q158 0 297.5 -60.5t243.5 -165t164.5 -244t60.5 -296.5q0 -158 -60.5 -297t-164.5 -243.5t-243.5 -165t-297.5 -60.5t-297 60.5t-243.5 165t-165 243.5t-60.5 297zM201 717q0 -127 49 -241t134 -198.5t198.5 -134 t240.5 -49.5t240 49.5t198 134t134 198.5t49 241t-49 239.5t-134 197.5t-198 134t-240 49t-240.5 -49t-198.5 -134t-134 -197.5t-49 -239.5zM1007 1835h-150.981l-104.987 -260h151.981z" />
<glyph unicode="&#xd4;" horiz-adv-x="1634" d="M49 717q0 158 60.5 297t165 243.5t244 165t296.5 60.5q158 0 297.5 -60.5t243.5 -165t164.5 -244t60.5 -296.5q0 -158 -60.5 -297t-164.5 -243.5t-243.5 -165t-297.5 -60.5t-297 60.5t-243.5 165t-165 243.5t-60.5 297zM193 717q0 -127 49 -241t134 -198.5t198.5 -134 t240.5 -49.5t240 49.5t198 134t134 198.5t49 241t-49 239.5t-134 197.5t-198 134t-240 49t-240.5 -49t-198.5 -134t-134 -197.5t-49 -239.5zM528 1575l186 267h183l188 -267h-156l-122 172l-125 -172h-154z" />
<glyph unicode="&#xd5;" horiz-adv-x="1656" d="M57 717q0 158 60.5 297t165 243.5t244 165t296.5 60.5q158 0 297.5 -60.5t243.5 -165t164.5 -244t60.5 -296.5q0 -158 -60.5 -297t-164.5 -243.5t-243.5 -165t-297.5 -60.5t-297 60.5t-243.5 165t-165 243.5t-60.5 297zM201 717q0 -127 49 -241t134 -198.5t198.5 -134 t240.5 -49.5t240 49.5t198 134t134 198.5t49 241t-49 239.5t-134 197.5t-198 134t-240 49t-240.5 -49t-198.5 -134t-134 -197.5t-49 -239.5zM559 1669q49 84 135 107.5t170 -23.5q31 -18 57.5 -9t44.5 40l127 -76q-49 -84 -135 -107.5t-170 25.5q-31 20 -57.5 10t-44.5 -43z " />
<glyph unicode="&#xd6;" horiz-adv-x="1644" d="M57 717q0 158 60.5 297t165 243.5t244 165t296.5 60.5q158 0 297.5 -60.5t243.5 -165t164.5 -244t60.5 -296.5q0 -158 -60.5 -297t-164.5 -243.5t-243.5 -165t-297.5 -60.5t-297 60.5t-243.5 165t-165 243.5t-60.5 297zM201 717q0 -127 49 -241t134 -198.5t198.5 -134 t240.5 -49.5t240 49.5t198 134t134 198.5t49 241t-49 239.5t-134 197.5t-198 134t-240 49t-240.5 -49t-198.5 -134t-134 -197.5t-49 -239.5zM572 1717q0 37 24.5 61.5t61.5 24.5t61.5 -24.5t24.5 -61.5t-24.5 -61.5t-61.5 -24.5t-61.5 24.5t-24.5 61.5zM899 1717 q0 37 25 61.5t61 24.5q37 0 61.5 -24.5t24.5 -61.5t-24.5 -61.5t-61.5 -24.5t-61.5 24.5t-24.5 61.5z" />
<glyph unicode="&#xd7;" horiz-adv-x="722" d="M61 373l199 198l-194 193l102 102l194 -194l193 194l102 -102l-194 -193l199 -198l-101 -103l-199 199l-198 -199z" />
<glyph unicode="&#xd8;" horiz-adv-x="1617" d="M43 717q0 158 60.5 297t165 243.5t243.5 165t297 60.5q86 0 166 -19l63 195h152l-78 -240q135 -59 238 -162q104 -104 164.5 -243.5t60.5 -296.5q0 -158 -60.5 -297t-165 -243.5t-243.5 -165t-297 -60.5q-88 0 -168 18l-61 -188h-152l76 233q-135 59 -236 162 q-104 104 -164.5 243.5t-60.5 297.5zM186 717q0 -127 49.5 -241t133.5 -200q78 -78 180 -124l381 1173q-59 12 -121 12q-127 0 -240.5 -49t-198.5 -134t-134.5 -197.5t-49.5 -239.5zM686 106q59 -12 123 -12q127 0 239.5 49.5t197.5 134t134.5 198.5t49.5 241t-49.5 239.5 t-135.5 196.5q-78 78 -178 127z" />
<glyph unicode="&#xd9;" horiz-adv-x="1107" d="M74 428v1006h143v-1006q0 -70 25.5 -131t70.5 -106.5t106.5 -71t131.5 -25.5t131 25.5t106.5 71t71 106.5t25.5 131v1006h143v-1006q0 -100 -37 -187t-101.5 -151.5t-151.5 -101.5t-187 -37t-187.5 37t-152 101.5t-101 151.5t-36.5 187zM379 1835h151l105 -260h-152z" />
<glyph unicode="&#xda;" horiz-adv-x="1107" d="M74 428v1006h143v-1006q0 -70 25.5 -131t70.5 -106.5t106.5 -71t131.5 -25.5t131 25.5t106.5 71t71 106.5t25.5 131v1006h143v-1006q0 -100 -37 -187t-101.5 -151.5t-151.5 -101.5t-187 -37t-187.5 37t-152 101.5t-101 151.5t-36.5 187zM733.004 1835h-150.981 l-104.987 -260h151.981z" />
<glyph unicode="&#xdb;" horiz-adv-x="1107" d="M74 428v1006h143v-1006q0 -70 25.5 -131t70.5 -106.5t106.5 -71t131.5 -25.5t131 25.5t106.5 71t71 106.5t25.5 131v1006h143v-1006q0 -100 -37 -187t-101.5 -151.5t-151.5 -101.5t-187 -37t-187.5 37t-152 101.5t-101 151.5t-36.5 187zM272 1575l186 267h183l188 -267 h-156l-122 172l-125 -172h-154z" />
<glyph unicode="&#xdc;" horiz-adv-x="1101" d="M74 428v1006h143v-1006q0 -70 25.5 -131t70.5 -106.5t106.5 -71t131.5 -25.5t131 25.5t106.5 71t71 106.5t25.5 131v1006h143v-1006q0 -100 -37 -187t-101.5 -151.5t-151.5 -101.5t-187 -37t-187.5 37t-152 101.5t-101 151.5t-36.5 187zM314 1661q0 37 24.5 61.5 t61.5 24.5t61.5 -24.5t24.5 -61.5t-24.5 -61.5t-61.5 -24.5t-61.5 24.5t-24.5 61.5zM641 1661q0 37 25 61.5t61 24.5q37 0 61.5 -24.5t24.5 -61.5t-24.5 -61.5t-61.5 -24.5t-61.5 24.5t-24.5 61.5z" />
<glyph unicode="&#xdd;" horiz-adv-x="1144" d="M27 1434h157l377 -732l377 732h158l-457 -871v-563h-154v559zM483 1575l104 260h152l-105 -260h-151z" />
<glyph unicode="&#xde;" horiz-adv-x="833" d="M82 0v1434h143v-410h78q221 0 348 -102q123 -104 123 -285q0 -92 -31.5 -161.5t-91.5 -123.5q-127 -100 -348 -100h-78v-252h-143zM225 391h82q143 0 232 66q82 66 82 180q0 113 -82 182q-88 66 -232 66h-82v-494z" />
<glyph unicode="&#xdf;" horiz-adv-x="985" d="M82 0v1434h283q221 0 348 -103q123 -104 123 -284q0 -92 -32 -162t-91 -123q-4 -4 -8 -6q57 -23 102 -58q63 -59 96 -129.5t33 -169.5q0 -182 -129 -295q-133 -104 -358 -104h-64v145h66q160 0 239 68q88 74 88 188q0 123 -88 193q-80 68 -239 68h-66v139h45q94 0 170 65 q82 66 82 181q0 113 -82 182q-88 66 -231 65h-144v-1294h-143z" />
<glyph unicode="&#xe0;" horiz-adv-x="1267" d="M55 514q0 117 44 219.5t121 179t179.5 120.5t218.5 44q117 0 219.5 -44t179.5 -120.5t121 -179t44 -219.5v-514h-144v137l-22 -22q-76 -76 -178.5 -120t-219.5 -44t-219 44t-179 121t-121 179t-44 219zM199 514q0 -86 32.5 -163t90 -134t134 -90t162.5 -33t163 33 t134.5 90t90.5 133q29 70 32 146v18q0 86 -32.5 163t-90 134t-134 90t-163.5 33q-86 0 -162.5 -33t-134 -90t-90 -134t-32.5 -163zM436 1432h151l105 -260h-152z" />
<glyph unicode="&#xe1;" horiz-adv-x="1259" d="M55 514q0 117 44 219.5t121 179t179.5 120.5t218.5 44q117 0 219.5 -44t179.5 -120.5t121 -179t44 -219.5v-514h-144v137l-22 -22q-76 -76 -178.5 -120t-219.5 -44t-219 44t-179 121t-121 179t-44 219zM199 514q0 -86 32.5 -163t90 -134t134 -90t162.5 -33t163 33 t134.5 90t90.5 133q29 70 32 146v18q0 86 -32.5 163t-90 134t-134 90t-163.5 33q-86 0 -162.5 -33t-134 -90t-90 -134t-32.5 -163zM799.004 1432h-150.981l-104.987 -260h151.981z" />
<glyph unicode="&#xe2;" horiz-adv-x="1263" d="M55 514q0 117 44 219.5t121 179t179.5 120.5t218.5 44q117 0 219.5 -44t179.5 -120.5t121 -179t44 -219.5v-514h-144v137l-22 -22q-76 -76 -178.5 -120t-219.5 -44t-219 44t-179 121t-121 179t-44 219zM199 514q0 -86 32.5 -163t90 -134t134 -90t162.5 -33t163 33 t134.5 90t90.5 133q29 70 32 146v18q0 86 -32.5 163t-90 134t-134 90t-163.5 33q-86 0 -162.5 -33t-134 -90t-90 -134t-32.5 -163zM348 1167l186 267h183l188 -267h-156l-122 172l-125 -172h-154z" />
<glyph unicode="&#xe3;" horiz-adv-x="1267" d="M55 514q0 117 44 219.5t121 179t179.5 120.5t218.5 44q117 0 219.5 -44t179.5 -120.5t121 -179t44 -219.5v-514h-144v137l-22 -22q-76 -76 -178.5 -120t-219.5 -44t-219 44t-179 121t-121 179t-44 219zM199 514q0 -86 32.5 -163t90 -134t134 -90t162.5 -33t163 33 t134.5 90t90.5 133q29 70 32 146v18q0 86 -32.5 163t-90 134t-134 90t-163.5 33q-86 0 -162.5 -33t-134 -90t-90 -134t-32.5 -163zM336 1214q49 84 135 107.5t170 -23.5q31 -18 57.5 -9t44.5 40l127 -76q-49 -84 -135 -107.5t-170 25.5q-31 20 -57.5 10t-44.5 -43z" />
<glyph unicode="&#xe4;" horiz-adv-x="1269" d="M55 514q0 117 44 219.5t121 179t179.5 120.5t218.5 44q117 0 219.5 -44t179.5 -120.5t121 -179t44 -219.5v-514h-144v137l-22 -22q-76 -76 -178.5 -120t-219.5 -44t-219 44t-179 121t-121 179t-44 219zM199 514q0 -86 32.5 -163t90 -134t134 -90t162.5 -33t163 33 t134.5 90t90.5 133q29 70 32 146v18q0 86 -32.5 163t-90 134t-134 90t-163.5 33q-86 0 -162.5 -33t-134 -90t-90 -134t-32.5 -163zM375 1303q0 37 24.5 61.5t61.5 24.5t61.5 -24.5t24.5 -61.5t-24.5 -61.5t-61.5 -24.5t-61.5 24.5t-24.5 61.5zM702 1303q0 37 25 61.5 t61 24.5q37 0 61.5 -24.5t24.5 -61.5t-24.5 -61.5t-61.5 -24.5t-61.5 24.5t-24.5 61.5z" />
<glyph unicode="&#xe6;" horiz-adv-x="2250" d="M86 514q0 117 44 219.5t121 179t179.5 120.5t218.5 44q117 0 219.5 -44t179.5 -120.5t121 -179t44 -219.5v-514h-144v137l-22 -22q-76 -76 -178.5 -120t-219.5 -44t-219 44t-179 121t-121 179t-44 219zM230 514q0 -86 32.5 -163t90 -134t134 -90t162.5 -33t163 33 t134.5 90t90.5 133q29 70 32 146v18q0 86 -32.5 163t-90 134t-134 90t-163.5 33q-86 0 -162.5 -33t-134 -90t-90 -134t-32.5 -163zM1069 514q0 117 44 219.5t121 179t179.5 120.5t218.5 44q117 0 219.5 -44t179.5 -120.5t120 -179.5q37 -84 43 -176h-979q-2 -23 -2 -43 q0 -86 32.5 -163t90 -134t134 -90t162.5 -33t163 33t134 90q41 41 70 94h158l-6 -16q-43 -102 -120 -179t-179.5 -121t-219.5 -44t-219 44t-179 121t-121 179t-44 219zM1256 700h751q-31 61 -78 111q-57 57 -133.5 90t-163.5 33q-86 0 -162.5 -33t-133.5 -90 q-49 -50 -80 -111z" />
<glyph unicode="&#xe7;" horiz-adv-x="1193" d="M55 514q0 117 44 219.5t121 179t179.5 120.5t218.5 44q117 0 219.5 -44t179.5 -120.5t120 -179.5l6 -14h-160q-27 51 -68 92q-57 57 -133.5 90t-163.5 33q-86 0 -162.5 -33t-134 -90t-90 -134t-32.5 -163t32.5 -163t90 -134t134 -90t162.5 -33t163 33t134 90q41 41 70 94 h158l-6 -16q-43 -102 -120 -179t-179.5 -121t-219.5 -44t-219 44t-179 121t-121 179t-44 219zM524 0h143v-113q43 0 83 -17t69 -46t46 -68t17 -84t-17 -84t-46 -67.5t-69 -45t-83 -16.5h-143v144h143q29 0 49.5 20.5t20.5 48.5q0 29 -20.5 50.5t-49.5 21.5h-143v256z" />
<glyph unicode="&#xe8;" horiz-adv-x="1236" d="M55 514q0 117 44 219.5t121 179t179.5 120.5t218.5 44q117 0 219.5 -44t179.5 -120.5t120 -179.5q37 -84 43 -176h-979q-2 -23 -2 -43q0 -86 32.5 -163t90 -134t134 -90t162.5 -33t163 33t134 90q41 41 70 94h158l-6 -16q-43 -102 -120 -179t-179.5 -121t-219.5 -44 t-219 44t-179 121t-121 179t-44 219zM242 700h751q-31 61 -78 111q-57 57 -133.5 90t-163.5 33q-86 0 -162.5 -33t-133.5 -90q-49 -50 -80 -111zM434 1432h151l105 -260h-152z" />
<glyph unicode="&#xe9;" horiz-adv-x="1236" d="M55 514q0 117 44 219.5t121 179t179.5 120.5t218.5 44q117 0 219.5 -44t179.5 -120.5t120 -179.5q37 -84 43 -176h-979q-2 -23 -2 -43q0 -86 32.5 -163t90 -134t134 -90t162.5 -33t163 33t134 90q41 41 70 94h158l-6 -16q-43 -102 -120 -179t-179.5 -121t-219.5 -44 t-219 44t-179 121t-121 179t-44 219zM242 700h751q-31 61 -78 111q-57 57 -133.5 90t-163.5 33q-86 0 -162.5 -33t-133.5 -90q-49 -50 -80 -111zM778.004 1432h-150.981l-104.987 -260h151.981z" />
<glyph unicode="&#xea;" horiz-adv-x="1236" d="M55 514q0 117 44 219.5t121 179t179.5 120.5t218.5 44q117 0 219.5 -44t179.5 -120.5t120 -179.5q37 -84 43 -176h-979q-2 -23 -2 -43q0 -86 32.5 -163t90 -134t134 -90t162.5 -33t163 33t134 90q41 41 70 94h158l-6 -16q-43 -102 -120 -179t-179.5 -121t-219.5 -44 t-219 44t-179 121t-121 179t-44 219zM242 700h751q-31 61 -78 111q-57 57 -133.5 90t-163.5 33q-86 0 -162.5 -33t-133.5 -90q-49 -50 -80 -111zM342 1169l186 267h183l188 -267h-156l-122 172l-125 -172h-154z" />
<glyph unicode="&#xeb;" horiz-adv-x="1236" d="M55 514q0 117 44 219.5t121 179t179.5 120.5t218.5 44q117 0 219.5 -44t179.5 -120.5t120 -179.5q37 -84 43 -176h-979q-2 -23 -2 -43q0 -86 32.5 -163t90 -134t134 -90t162.5 -33t163 33t134 90q41 41 70 94h158l-6 -16q-43 -102 -120 -179t-179.5 -121t-219.5 -44 t-219 44t-179 121t-121 179t-44 219zM242 700h751q-31 61 -78 111q-57 57 -133.5 90t-163.5 33q-86 0 -162.5 -33t-133.5 -90q-49 -50 -80 -111zM365 1301q0 37 24.5 61.5t61.5 24.5t61.5 -24.5t24.5 -61.5t-24.5 -61.5t-61.5 -24.5t-61.5 24.5t-24.5 61.5zM692 1301 q0 37 25 61.5t61 24.5q37 0 61.5 -24.5t24.5 -61.5t-24.5 -61.5t-61.5 -24.5t-61.5 24.5t-24.5 61.5z" />
<glyph unicode="&#xec;" horiz-adv-x="288" d="M-31 1427h152l104 -260h-151zM80 0v1022h143v-1022h-143z" />
<glyph unicode="&#xed;" horiz-adv-x="294" d="M68 0v1022h143v-1022h-143zM68 1167l104 260h152l-105 -260h-151z" />
<glyph unicode="&#xee;" horiz-adv-x="311" d="M82 0v1024h143v-1024h-143zM-121 1167l186 267h183l188 -267h-156l-122 172l-125 -172h-154z" />
<glyph unicode="&#xef;" horiz-adv-x="294" d="M82 0v1024h143v-1024h-143zM-94 1303q0 37 24.5 61.5t61.5 24.5t61.5 -24.5t24.5 -61.5t-24.5 -61.5t-61.5 -24.5t-61.5 24.5t-24.5 61.5zM233 1303q0 37 25 61.5t61 24.5q37 0 61.5 -24.5t24.5 -61.5t-24.5 -61.5t-61.5 -24.5t-61.5 24.5t-24.5 61.5z" />
<glyph unicode="&#xf1;" horiz-adv-x="1085" d="M80 0v1024h143v-94q20 33 55 60.5t77 47t89.5 29.5t94.5 10q94 0 178 -36.5t146.5 -99t99 -147.5t36.5 -180l2 -614h-147l-2 614q0 66 -24.5 123.5t-67.5 100.5t-100.5 67.5t-120.5 24.5t-121 -26.5t-101 -71t-68.5 -101.5t-25.5 -117l2 -614h-145zM248 1264 q49 84 135 107.5t170 -23.5q31 -18 57.5 -9t44.5 40l127 -76q-49 -84 -135 -107.5t-170 25.5q-31 20 -57.5 10t-44.5 -43z" />
<glyph unicode="&#xf2;" horiz-adv-x="1230" d="M55 514q0 117 44 219.5t121 179t179.5 120.5t218.5 44q117 0 219.5 -44t179.5 -120.5t121 -179t44 -219.5t-44 -219t-121 -179t-179.5 -121t-219.5 -44t-219 44t-179 121t-121 179t-44 219zM199 514q0 -86 32.5 -163t90 -134t134 -90t162.5 -33t163 33t134.5 90t90 134 t32.5 163t-32.5 163t-90 134t-134 90t-163.5 33q-86 0 -162.5 -33t-134 -90t-90 -134t-32.5 -163zM436 1432h151l105 -260h-152z" />
<glyph unicode="&#xf3;" horiz-adv-x="1230" d="M55 514q0 117 44 219.5t121 179t179.5 120.5t218.5 44q117 0 219.5 -44t179.5 -120.5t121 -179t44 -219.5t-44 -219t-121 -179t-179.5 -121t-219.5 -44t-219 44t-179 121t-121 179t-44 219zM199 514q0 -86 32.5 -163t90 -134t134 -90t162.5 -33t163 33t134.5 90t90 134 t32.5 163t-32.5 163t-90 134t-134 90t-163.5 33q-86 0 -162.5 -33t-134 -90t-90 -134t-32.5 -163zM539 1172l104 260h152l-105 -260h-151z" />
<glyph unicode="&#xf4;" horiz-adv-x="1230" d="M55 514q0 117 44 219.5t121 179t179.5 120.5t218.5 44q117 0 219.5 -44t179.5 -120.5t121 -179t44 -219.5t-44 -219t-121 -179t-179.5 -121t-219.5 -44t-219 44t-179 121t-121 179t-44 219zM199 514q0 -86 32.5 -163t90 -134t134 -90t162.5 -33t163 33t134.5 90t90 134 t32.5 163t-32.5 163t-90 134t-134 90t-163.5 33q-86 0 -162.5 -33t-134 -90t-90 -134t-32.5 -163zM348 1167l186 267h183l188 -267h-156l-122 172l-125 -172h-154z" />
<glyph unicode="&#xf5;" horiz-adv-x="1230" d="M55 514q0 117 44 219.5t121 179t179.5 120.5t218.5 44q117 0 219.5 -44t179.5 -120.5t121 -179t44 -219.5t-44 -219t-121 -179t-179.5 -121t-219.5 -44t-219 44t-179 121t-121 179t-44 219zM199 514q0 -86 32.5 -163t90 -134t134 -90t162.5 -33t163 33t134.5 90t90 134 t32.5 163t-32.5 163t-90 134t-134 90t-163.5 33q-86 0 -162.5 -33t-134 -90t-90 -134t-32.5 -163zM340 1264q49 84 135 107.5t170 -23.5q31 -18 57.5 -9t44.5 40l127 -76q-49 -84 -135 -107.5t-170 25.5q-31 20 -57.5 10t-44.5 -43z" />
<glyph unicode="&#xf6;" horiz-adv-x="1230" d="M55 514q0 117 44 219.5t121 179t179.5 120.5t218.5 44q117 0 219.5 -44t179.5 -120.5t121 -179t44 -219.5t-44 -219t-121 -179t-179.5 -121t-219.5 -44t-219 44t-179 121t-121 179t-44 219zM199 514q0 -86 32.5 -163t90 -134t134 -90t162.5 -33t163 33t134.5 90t90 134 t32.5 163t-32.5 163t-90 134t-134 90t-163.5 33q-86 0 -162.5 -33t-134 -90t-90 -134t-32.5 -163zM367 1305q0 37 24.5 61.5t61.5 24.5t61.5 -24.5t24.5 -61.5t-24.5 -61.5t-61.5 -24.5t-61.5 24.5t-24.5 61.5zM694 1305q0 37 25 61.5t61 24.5q37 0 61.5 -24.5t24.5 -61.5 t-24.5 -61.5t-61.5 -24.5t-61.5 24.5t-24.5 61.5z" />
<glyph unicode="&#xf7;" horiz-adv-x="292" d="M63 86q0 37 25 61.5t62 24.5t61.5 -24.5t24.5 -61.5t-25 -61.5t-61 -24.5q-37 0 -62 24.5t-25 61.5zM63 938q0 37 25 61.5t62 24.5t61.5 -24.5t24.5 -61.5t-25 -61.5t-61 -24.5q-37 0 -62 24.5t-25 61.5zM-213 418v143h698v-143h-698z" />
<glyph unicode="&#xf8;" horiz-adv-x="1208" d="M41 514q0 117 44 219.5t121 179t179 120.5t219 44q53 0 103 -10l55 168h151l-69 -211q90 -43 157 -113q78 -76 122 -178t44 -219t-44 -219t-120.5 -179t-179 -121t-219.5 -44q-55 0 -106 10l-52 -160h-151l65 203q-88 43 -155 111q-76 78 -120 180t-44 219zM184 514 q0 -86 33 -163t90 -134q43 -45 99 -74l256 787q-29 4 -58 4q-86 0 -162.5 -33t-134 -90t-90.5 -134t-33 -163zM543 98q31 -4 61 -4q86 0 163 33t134 90t90 134t33 163t-33 163t-90 134q-45 45 -102 74z" />
<glyph unicode="&#xf9;" horiz-adv-x="1073" d="M70 1024h147l2 -561v-2q0 -66 24.5 -123t67.5 -99t99.5 -67t121.5 -25q66 0 123.5 25t100.5 67t67.5 99t24.5 123v563h143v-563q0 -94 -35.5 -178t-98 -146.5t-146.5 -99.5t-179 -37q-94 0 -178 37t-146.5 99.5t-99 146.5t-36.5 178v2zM357 1432h151l105 -260h-152z" />
<glyph unicode="&#xfa;" horiz-adv-x="1069" d="M70 1024h147l2 -561v-2q0 -66 24.5 -123t67.5 -99t99.5 -67t121.5 -25q66 0 123.5 25t100.5 67t67.5 99t24.5 123v563h143v-563q0 -94 -35.5 -178t-98 -146.5t-146.5 -99.5t-179 -37q-94 0 -178 37t-146.5 99.5t-99 146.5t-36.5 178v2zM459 1174l104 260h152l-105 -260 h-151z" />
<glyph unicode="&#xfb;" horiz-adv-x="1073" d="M70 1024h147l2 -561v-2q0 -66 24.5 -123t67.5 -99t99.5 -67t121.5 -25q66 0 123.5 25t100.5 67t67.5 99t24.5 123v563h143v-563q0 -94 -35.5 -178t-98 -146.5t-146.5 -99.5t-179 -37q-94 0 -178 37t-146.5 99.5t-99 146.5t-36.5 178v2zM256 1167l186 267h183l188 -267 h-156l-122 172l-125 -172h-154z" />
<glyph unicode="&#xfc;" horiz-adv-x="1073" d="M70 1024h147l2 -561v-2q0 -66 24.5 -123t67.5 -99t99.5 -67t121.5 -25q66 0 123.5 25t100.5 67t67.5 99t24.5 123v563h143v-563q0 -94 -35.5 -178t-98 -146.5t-146.5 -99.5t-179 -37q-94 0 -178 37t-146.5 99.5t-99 146.5t-36.5 178v2zM287 1303q0 37 24.5 61.5 t61.5 24.5t61.5 -24.5t24.5 -61.5t-24.5 -61.5t-61.5 -24.5t-61.5 24.5t-24.5 61.5zM614 1303q0 37 25 61.5t61 24.5q37 0 61.5 -24.5t24.5 -61.5t-24.5 -61.5t-61.5 -24.5t-61.5 24.5t-24.5 61.5z" />
<glyph unicode="&#xfd;" horiz-adv-x="1181" d="M70 1024h147l2 -561v-2q0 -66 24.5 -123t67.5 -99t99.5 -67t121.5 -25q66 0 123.5 25t100.5 67t67.5 99t24.5 123v563h143v-563q0 -94 -35.5 -178t-98 -146.5t-146.5 -99.5q-51 -23 -107 -33l2 -463h-145l-2 463q-55 10 -105 33q-84 37 -146.5 99.5t-99 146.5t-36.5 178 v2zM467 1174l104 260h152l-105 -260h-151z" />
<glyph unicode="&#xfe;" horiz-adv-x="1282" d="M82 -440v1874h143v-545q10 12 21 22q78 78 180 122t219 44t219.5 -44t179 -120.5t120.5 -179t44 -219.5t-44 -219t-120.5 -179t-179 -121t-219.5 -44t-219 44t-180 120q-10 12 -21 22v-577h-143zM225 514q0 -86 33 -163t90.5 -134t134 -90t162.5 -33t163 33t134 90 t90 134t33 163t-33 163t-90 134t-134 90t-163 33t-162.5 -33t-134 -90t-90.5 -135q-29 -66 -33 -135v-27z" />
<glyph unicode="&#xff;" horiz-adv-x="1073" d="M70 1024h147l2 -561v-2q0 -66 24.5 -123t67.5 -99t99.5 -67t121.5 -25q66 0 123.5 25t100.5 67t67.5 99t24.5 123v563h143v-563q0 -94 -35.5 -178t-98 -146.5t-146.5 -99.5q-51 -23 -107 -33l2 -463h-145l-2 463q-55 10 -105 33q-84 37 -146.5 99.5t-99 146.5t-36.5 178 v2zM279 1303q0 37 24.5 61.5t61.5 24.5t61.5 -24.5t24.5 -61.5t-24.5 -61.5t-61.5 -24.5t-61.5 24.5t-24.5 61.5zM606 1303q0 37 25 61.5t61 24.5q37 0 61.5 -24.5t24.5 -61.5t-24.5 -61.5t-61.5 -24.5t-61.5 24.5t-24.5 61.5z" />
<glyph unicode="&#x131;" horiz-adv-x="303" d="M82 0v1024h143v-1024h-143z" />
<glyph unicode="&#x152;" horiz-adv-x="1775" d="M59 717q0 147 56.5 278t154 228.5t228.5 154t278 56.5h955v-144h-811v-590h667v-143h-667v-414h811v-143h-955q-147 0 -278 56.5t-228.5 153.5t-154 228.5t-56.5 278.5zM205 715q0 -119 45 -223.5t122 -181.5t181 -122t223 -45v1145q-119 0 -223 -45t-181 -123t-122 -182 t-45 -223z" />
<glyph unicode="&#x153;" horiz-adv-x="2222" d="M57 514q0 117 44 219.5t121 179t179.5 120.5t218.5 44q117 0 219.5 -44t179.5 -120.5t121 -179t44 -219.5t-44 -219t-121 -179t-179.5 -121t-219.5 -44t-219 44t-179 121t-121 179t-44 219zM201 514q0 -86 32.5 -163t90 -134t134 -90t162.5 -33t163 33t134.5 90t90 134 t32.5 163t-32.5 163t-90 134t-134 90t-163.5 33q-86 0 -162.5 -33t-134 -90t-90 -134t-32.5 -163zM1040 514q0 117 44 219.5t121 179t179.5 120.5t218.5 44q117 0 219.5 -44t179.5 -120.5t120 -179.5q37 -84 43 -176h-979q-2 -23 -2 -43q0 -86 32.5 -163t90 -134t134 -90 t162.5 -33t163 33t134 90q41 41 70 94h158l-6 -16q-43 -102 -120 -179t-179.5 -121t-219.5 -44t-219 44t-179 121t-121 179t-44 219zM1227 700h751q-31 61 -78 111q-57 57 -133.5 90t-163.5 33q-86 0 -162.5 -33t-133.5 -90q-49 -50 -80 -111z" />
<glyph unicode="&#x178;" horiz-adv-x="1107" d="M27 1434h157l377 -732l377 732h158l-457 -871v-563h-154v559zM314 1719q0 37 24.5 61.5t61.5 24.5t61.5 -24.5t24.5 -61.5t-24.5 -61.5t-61.5 -24.5t-61.5 24.5t-24.5 61.5zM641 1719q0 37 25 61.5t61 24.5q37 0 61.5 -24.5t24.5 -61.5t-24.5 -61.5t-61.5 -24.5 t-61.5 24.5t-24.5 61.5z" />
<glyph unicode="&#x2c6;" horiz-adv-x="645" d="M45 1167l186 267h183l188 -267h-156l-122 172l-125 -172h-154z" />
<glyph unicode="&#x2dc;" horiz-adv-x="614" d="M39 1708q49 84 135 107.5t170 -23.5q31 -18 57.5 -9t44.5 40l127 -76q-49 -84 -135 -107.5t-170 25.5q-31 20 -57.5 10t-44.5 -43z" />
<glyph unicode="&#x2000;" horiz-adv-x="919" />
<glyph unicode="&#x2001;" horiz-adv-x="1841" />
<glyph unicode="&#x2002;" horiz-adv-x="919" />
<glyph unicode="&#x2003;" horiz-adv-x="1841" />
<glyph unicode="&#x2004;" horiz-adv-x="612" />
<glyph unicode="&#x2005;" horiz-adv-x="458" />
<glyph unicode="&#x2006;" horiz-adv-x="305" />
<glyph unicode="&#x2007;" horiz-adv-x="305" />
<glyph unicode="&#x2008;" horiz-adv-x="229" />
<glyph unicode="&#x2009;" horiz-adv-x="366" />
<glyph unicode="&#x200a;" horiz-adv-x="100" />
<glyph unicode="&#x2010;" horiz-adv-x="862" d="M82 557v143h698v-143h-698z" />
<glyph unicode="&#x2011;" horiz-adv-x="862" d="M82 557v143h698v-143h-698z" />
<glyph unicode="&#x2012;" horiz-adv-x="862" d="M82 557v143h698v-143h-698z" />
<glyph unicode="&#x2013;" horiz-adv-x="1011" d="M82 471v143h848v-143h-848z" />
<glyph unicode="&#x2014;" horiz-adv-x="1175" d="M82 471v143h1012v-143h-1012z" />
<glyph unicode="&#x2018;" horiz-adv-x="276" d="M57 1239v80q0 27 11.5 53.5t40.5 44.5q51 27 65 10.5t-8 -36.5q-49 -27 -35 -66q57 0 77.5 -24.5t20.5 -61.5t-24.5 -61.5t-61.5 -24.5t-61.5 24.5t-24.5 61.5z" />
<glyph unicode="&#x2019;" horiz-adv-x="274" d="M57 1348q0 37 24.5 61.5t61.5 24.5t61.5 -25t24.5 -61v-80q0 -27 -11 -53.5t-40 -45.5q-51 -27 -65.5 -10t8.5 37q49 27 35 66q-57 0 -78 24.5t-21 61.5z" />
<glyph unicode="&#x201a;" horiz-adv-x="274" d="M43 86q0 37 24.5 61.5t61.5 24.5t61.5 -24.5t24.5 -61.5v-39q0 -41 -27.5 -68.5t-68.5 -27.5h-14q-7 0 -11 4q35 6 35 45q-37 0 -61.5 24.5t-24.5 61.5z" />
<glyph unicode="&#x201c;" horiz-adv-x="509" d="M37 1239v80q0 27 11 53.5t40 44.5q51 27 65.5 10.5t-8.5 -36.5q-49 -27 -34 -66q57 0 77.5 -24.5t20.5 -61.5t-24.5 -61.5t-61.5 -24.5t-61.5 24.5t-24.5 61.5zM303 1239v80q0 27 11.5 53.5t39.5 44.5q51 27 65.5 10.5t-7.5 -36.5q-49 -27 -35 -66q57 0 77.5 -24.5 t20.5 -61.5t-24.5 -61.5t-61.5 -24.5t-61.5 24.5t-24.5 61.5z" />
<glyph unicode="&#x201d;" horiz-adv-x="507" d="M37 1348q0 37 24.5 61.5t61.5 24.5t61.5 -25t24.5 -61v-80q0 -27 -11.5 -53.5t-39.5 -45.5q-51 -27 -65.5 -10t7.5 37q49 27 35 66q-57 0 -77.5 24.5t-20.5 61.5zM303 1348q0 37 24.5 61.5t61.5 24.5t61.5 -25t24.5 -61v-80q0 -27 -11 -53.5t-40 -45.5q-51 -27 -65.5 -10 t8.5 37q49 27 34 66q-57 0 -77.5 24.5t-20.5 61.5z" />
<glyph unicode="&#x201e;" horiz-adv-x="532" d="M51 86q0 37 24.5 61.5t61.5 24.5t61.5 -24.5t24.5 -61.5v-80q0 -27 -11 -53.5t-40 -44.5q-51 -27 -65.5 -10.5t8.5 36.5q49 27 35 66q-57 0 -78 24.5t-21 61.5zM317 86q0 37 25 61.5t61 24.5q37 0 61.5 -24.5t24.5 -61.5v-80q0 -27 -11 -53.5t-40 -44.5 q-51 -27 -65.5 -10.5t8.5 36.5q49 27 35 66q-57 0 -78 24.5t-21 61.5z" />
<glyph unicode="&#x2022;" horiz-adv-x="466" d="M59 612q0 76 50.5 126t123.5 50q76 0 126.5 -50t50.5 -126q0 -74 -50.5 -124t-126.5 -50q-74 0 -124 50t-50 124z" />
<glyph unicode="&#x2026;" horiz-adv-x="747" d="M76 86q0 37 24.5 61.5t61.5 24.5t61.5 -24.5t24.5 -61.5t-24.5 -61.5t-61.5 -24.5t-61.5 24.5t-24.5 61.5zM289 86q0 37 24.5 61.5t61.5 24.5t61.5 -24.5t24.5 -61.5t-24.5 -61.5t-61.5 -24.5t-61.5 24.5t-24.5 61.5zM502 86q0 37 24.5 61.5t61.5 24.5t61.5 -24.5 t24.5 -61.5t-24.5 -61.5t-61.5 -24.5t-61.5 24.5t-24.5 61.5z" />
<glyph unicode="&#x202f;" horiz-adv-x="366" />
<glyph unicode="&#x2039;" horiz-adv-x="681" d="M6 510l510 510l100 -102l-407 -408l407 -408l-100 -102z" />
<glyph unicode="&#x203a;" horiz-adv-x="679" d="M63 102l408 408l-408 408l101 102l510 -510l-510 -510z" />
<glyph unicode="&#x2044;" horiz-adv-x="638" d="M10 0l467 1434h152l-467 -1434h-152z" />
<glyph unicode="&#x205f;" horiz-adv-x="458" />
<glyph unicode="&#x20ac;" horiz-adv-x="1673" d="M39 496v143h176q-4 39 -4 80q0 33 2 63h-174v144h201q12 41 28 80q59 135 160.5 236t236 159.5t287.5 58.5q190 0 349 -88t262 -233h-199q-80 78 -185.5 123t-226.5 45t-228.5 -46.5t-187 -126t-126.5 -188.5q-6 -10 -11 -20h551v-144h-585q-2 -33 -3 -63q0 -41 5 -80 h583v-143h-542q0 -4 2 -7q47 -106 126.5 -186t187 -127t228.5 -47q80 0 155 20.5t139.5 59.5t117.5 91t92 118h172q-43 -98 -111.5 -179t-156.5 -139.5t-191.5 -90.5t-216.5 -32q-154 0 -288 58.5t-235 160t-161 234.5q-14 33 -24 66h-205z" />
<glyph unicode="&#x2122;" horiz-adv-x="2361" d="M1077 0v1434h143l457 -625l461 625h143v-1434h-143v1192l-461 -625l-457 623v-1190h-143zM20 1290v144h955v-144h-406v-1290h-143v1290h-406z" />
<glyph unicode="&#x2212;" horiz-adv-x="862" d="M82 496v143h698v-143h-698z" />
<glyph unicode="&#xe000;" horiz-adv-x="1025" d="M0 1025h1025v-1025h-1025v1025z" />
<glyph unicode="&#xfb01;" horiz-adv-x="770" d="M41 762v143h104v254q0 57 21.5 107.5t58.5 87.5t87 58.5t108 21.5q57 0 107.5 -21.5t88 -58.5t59 -87t21.5 -108h-143q0 53 -39 91t-92 38t-91 -38t-38 -91v-254h403v-905h-143v762h-260v-762h-148v762h-104z" />
<glyph unicode="&#xfb02;" horiz-adv-x="774" d="M41 557v143h104v459q0 57 21.5 107.5t58.5 87.5t87 58.5t108 21.5q57 0 107.5 -21.5t88 -58.5t59 -87t21.5 -108v-1159h-143v1159q0 53 -39 91t-92 38t-91 -38t-38 -91v-459h162v-143h-162v-557h-148v557h-104z" />
<glyph unicode="&#xfb03;" horiz-adv-x="1572" d="M1351 1348q0 37 24.5 61.5t61.5 24.5t61.5 -25t24.5 -61q0 -37 -24.5 -61.5t-61.5 -24.5t-61.5 24.5t-24.5 61.5zM1364 0v1024h143v-1024h-143zM629 557v143h104v459q0 57 21.5 107.5t58.5 87.5t87 58.5t107 21.5t107.5 -21.5t88.5 -58.5t59.5 -87t21.5 -108h-143 q0 53 -39 91t-93 38q-53 0 -91 -38t-38 -91v-459h265v-143h-265v-557h-147v557h-104zM-20 557v143h104v459q0 57 21.5 107.5t58.5 87.5t87 58.5t107 21.5t107.5 -21.5t88.5 -58.5t59.5 -87t21.5 -108h-143q0 53 -39 91t-93 38q-53 0 -91 -38t-38 -91v-459h265v-143h-265 v-557h-147v557h-104z" />
<glyph unicode="&#xfb04;" horiz-adv-x="1601" d="M1380 0v1434h143v-1434h-143zM629 557v143h104v459q0 57 21.5 107.5t58.5 87.5t87 58.5t107 21.5t107.5 -21.5t88.5 -58.5t59.5 -87t21.5 -108h-143q0 53 -39 91t-93 38q-53 0 -91 -38t-38 -91v-459h265v-143h-265v-557h-147v557h-104zM-20 557v143h104v459 q0 57 21.5 107.5t58.5 87.5t87 58.5t107 21.5t107.5 -21.5t88.5 -58.5t59.5 -87t21.5 -108h-143q0 53 -39 91t-93 38q-53 0 -91 -38t-38 -91v-459h265v-143h-265v-557h-147v557h-104z" />
</font>
</defs>
</svg>
